<svg width="406" height="67" viewBox="0 0 406 67" fill="none" xmlns="http://www.w3.org/2000/svg">
<rect x="45" y="1" width="361" height="49" rx="16" fill="#93D75D"/>
<path d="M62.415 31.9482H61.2734V28.8926H62.0049C62.2464 28.765 62.4401 28.585 62.5859 28.3525C62.7318 28.1156 62.8411 27.8285 62.9141 27.4912C62.9915 27.154 63.0417 26.7712 63.0645 26.3428L63.4404 20.1357H69.6816V28.8926H70.9121V31.9482H69.7705V30H62.415V31.9482ZM64.2197 26.3701C64.1969 26.7393 64.1628 27.0719 64.1172 27.3682C64.0716 27.6644 64.0033 27.931 63.9121 28.168C63.821 28.4004 63.6934 28.6146 63.5293 28.8105V28.8926H68.4512V21.2432H64.541L64.2197 26.3701ZM75.5947 30.1299C74.8975 30.1299 74.2936 29.9772 73.7832 29.6719C73.2773 29.362 72.8854 28.9222 72.6074 28.3525C72.334 27.7829 72.1973 27.1061 72.1973 26.3223V26.3086C72.1973 25.5202 72.334 24.8411 72.6074 24.2715C72.8854 23.7018 73.2773 23.2643 73.7832 22.959C74.2936 22.6536 74.8975 22.501 75.5947 22.501C76.2965 22.501 76.9004 22.6536 77.4062 22.959C77.9121 23.2643 78.3018 23.7018 78.5752 24.2715C78.8532 24.8411 78.9922 25.5202 78.9922 26.3086V26.3223C78.9922 27.1061 78.8532 27.7829 78.5752 28.3525C78.3018 28.9222 77.9121 29.362 77.4062 29.6719C76.9004 29.9772 76.2965 30.1299 75.5947 30.1299ZM75.5947 29.0771C76.0596 29.0771 76.4538 28.9678 76.7773 28.749C77.1009 28.5303 77.347 28.2158 77.5156 27.8057C77.6888 27.3955 77.7754 26.901 77.7754 26.3223V26.3086C77.7754 25.7253 77.6888 25.2285 77.5156 24.8184C77.347 24.4082 77.1009 24.096 76.7773 23.8818C76.4538 23.6631 76.0596 23.5537 75.5947 23.5537C75.1299 23.5537 74.7357 23.6631 74.4121 23.8818C74.0885 24.096 73.8402 24.4082 73.667 24.8184C73.4984 25.2285 73.4141 25.7253 73.4141 26.3086V26.3223C73.4141 26.901 73.4984 27.3955 73.667 27.8057C73.8402 28.2158 74.0885 28.5303 74.4121 28.749C74.7357 28.9678 75.1299 29.0771 75.5947 29.0771ZM84.0371 30.1367C82.9115 30.1367 82.057 29.7585 81.4736 29.002C80.8949 28.2409 80.6055 27.1221 80.6055 25.6455V25.6318C80.6055 24.3285 80.7331 23.2643 80.9883 22.4395C81.2435 21.6146 81.6423 21.0016 82.1846 20.6006C82.7314 20.195 83.4447 19.9717 84.3242 19.9307L85.0625 19.8965C85.3587 19.8828 85.6732 19.8464 86.0059 19.7871C86.3385 19.7233 86.6644 19.6276 86.9834 19.5V20.5527C86.8695 20.6621 86.637 20.7578 86.2861 20.8398C85.9352 20.9173 85.5456 20.9674 85.1172 20.9902L84.3652 21.0244C83.7956 21.0472 83.3239 21.1589 82.9502 21.3594C82.5811 21.5599 82.2917 21.8675 82.082 22.2822C81.8724 22.6969 81.722 23.2393 81.6309 23.9092L81.6104 24.0596H81.7197C81.9704 23.6175 82.3099 23.2803 82.7383 23.0479C83.1667 22.8154 83.6589 22.6992 84.2148 22.6992C84.8757 22.6992 85.4499 22.8496 85.9375 23.1504C86.4251 23.4466 86.8011 23.8659 87.0654 24.4082C87.3343 24.9505 87.4688 25.5931 87.4688 26.3359V26.3496C87.4688 27.1289 87.3298 27.8034 87.0518 28.373C86.7783 28.9382 86.3841 29.3734 85.8691 29.6787C85.3587 29.984 84.748 30.1367 84.0371 30.1367ZM84.0371 29.084C84.5065 29.084 84.9053 28.9769 85.2334 28.7627C85.5661 28.5439 85.819 28.2318 85.9922 27.8262C86.1654 27.416 86.252 26.9238 86.252 26.3496V26.3359C86.252 25.7845 86.1654 25.3174 85.9922 24.9346C85.819 24.5518 85.5661 24.2601 85.2334 24.0596C84.9053 23.8545 84.5065 23.752 84.0371 23.752C83.5677 23.752 83.1667 23.8545 82.834 24.0596C82.5059 24.2601 82.2552 24.5518 82.082 24.9346C81.9089 25.3174 81.8223 25.7845 81.8223 26.3359V26.3496C81.8223 26.9238 81.9089 27.416 82.082 27.8262C82.2552 28.2318 82.5059 28.5439 82.834 28.7627C83.1667 28.9769 83.5677 29.084 84.0371 29.084ZM91.4746 30.1299C91.0098 30.1299 90.5905 30.041 90.2168 29.8633C89.8477 29.6855 89.5537 29.4326 89.335 29.1045C89.1208 28.7764 89.0137 28.389 89.0137 27.9424V27.9287C89.0137 27.2725 89.2461 26.7598 89.7109 26.3906C90.1803 26.0169 90.8434 25.805 91.7002 25.7549L94.4072 25.5908V26.541L91.8438 26.7051C91.2832 26.737 90.873 26.8532 90.6133 27.0537C90.3581 27.2542 90.2305 27.5368 90.2305 27.9014V27.915C90.2305 28.2887 90.3717 28.5804 90.6543 28.79C90.9368 28.9951 91.2923 29.0977 91.7207 29.0977C92.1263 29.0977 92.4863 29.0179 92.8008 28.8584C93.1152 28.6943 93.3613 28.4733 93.5391 28.1953C93.7214 27.9173 93.8125 27.6029 93.8125 27.252V24.9551C93.8125 24.4993 93.6735 24.153 93.3955 23.916C93.1221 23.6745 92.7096 23.5537 92.1582 23.5537C91.7161 23.5537 91.3538 23.6335 91.0713 23.793C90.7887 23.9479 90.5996 24.1689 90.5039 24.4561L90.4971 24.4766H89.3076L89.3145 24.4355C89.3783 24.0482 89.5378 23.7109 89.793 23.4238C90.0527 23.1322 90.3877 22.9066 90.7979 22.7471C91.208 22.583 91.6751 22.501 92.1992 22.501C92.8008 22.501 93.3089 22.599 93.7236 22.7949C94.1429 22.9909 94.4596 23.2734 94.6738 23.6426C94.8926 24.0072 95.002 24.4447 95.002 24.9551V30H93.8125V28.9131H93.7031C93.5482 29.1729 93.359 29.3939 93.1357 29.5762C92.917 29.7585 92.6686 29.8975 92.3906 29.9932C92.1126 30.0843 91.8073 30.1299 91.4746 30.1299ZM97.3057 30V22.6309H100.43C101.127 22.6309 101.669 22.8063 102.057 23.1572C102.444 23.5036 102.638 23.9661 102.638 24.5449V24.5586C102.638 24.9232 102.524 25.2581 102.296 25.5635C102.068 25.8643 101.781 26.0511 101.435 26.124V26.2334C101.749 26.2744 102.02 26.3724 102.248 26.5273C102.476 26.6777 102.651 26.8691 102.774 27.1016C102.902 27.3294 102.966 27.5869 102.966 27.874V27.8877C102.966 28.5257 102.743 29.0384 102.296 29.4258C101.854 29.8086 101.236 30 100.443 30H97.3057ZM98.4951 29.0156H100.396C100.847 29.0156 101.186 28.9176 101.414 28.7217C101.642 28.5212 101.756 28.2363 101.756 27.8672V27.8535C101.756 27.4616 101.624 27.1768 101.359 26.999C101.095 26.8213 100.699 26.7324 100.17 26.7324H98.4951V29.0156ZM98.4951 25.748H100.067C100.546 25.748 100.897 25.6569 101.12 25.4746C101.343 25.2923 101.455 25.028 101.455 24.6816V24.668C101.455 24.3535 101.359 24.1006 101.168 23.9092C100.977 23.7132 100.674 23.6152 100.259 23.6152H98.4951V25.748ZM104.976 30V22.6309H106.165V28.127H106.794L105.987 28.5645L109.918 22.6309H111.107V30H109.918V24.5039H109.289L110.096 24.0664L106.165 30H104.976ZM118.791 22.6309V23.6152H116.405V30H115.216V23.6152H112.83V22.6309H118.791ZM120.507 30V22.6309H121.696V24.9961H123.139C123.982 24.9961 124.654 25.2217 125.155 25.6729C125.657 26.124 125.907 26.7301 125.907 27.4912V27.5049C125.907 28.266 125.657 28.8721 125.155 29.3232C124.654 29.7744 123.982 30 123.139 30H120.507ZM123.139 25.9805H121.696V29.0156H123.139C123.626 29.0156 124.011 28.8789 124.294 28.6055C124.576 28.3275 124.718 27.9606 124.718 27.5049V27.4912C124.718 27.0309 124.574 26.6641 124.287 26.3906C124.005 26.1172 123.622 25.9805 123.139 25.9805ZM131.677 30V22.6309H134.801C135.498 22.6309 136.04 22.8063 136.428 23.1572C136.815 23.5036 137.009 23.9661 137.009 24.5449V24.5586C137.009 24.9232 136.895 25.2581 136.667 25.5635C136.439 25.8643 136.152 26.0511 135.806 26.124V26.2334C136.12 26.2744 136.391 26.3724 136.619 26.5273C136.847 26.6777 137.022 26.8691 137.146 27.1016C137.273 27.3294 137.337 27.5869 137.337 27.874V27.8877C137.337 28.5257 137.114 29.0384 136.667 29.4258C136.225 29.8086 135.607 30 134.814 30H131.677ZM132.866 29.0156H134.767C135.218 29.0156 135.557 28.9176 135.785 28.7217C136.013 28.5212 136.127 28.2363 136.127 27.8672V27.8535C136.127 27.4616 135.995 27.1768 135.73 26.999C135.466 26.8213 135.07 26.7324 134.541 26.7324H132.866V29.0156ZM132.866 25.748H134.438C134.917 25.748 135.268 25.6569 135.491 25.4746C135.715 25.2923 135.826 25.028 135.826 24.6816V24.668C135.826 24.3535 135.73 24.1006 135.539 23.9092C135.348 23.7132 135.045 23.6152 134.63 23.6152H132.866V25.748ZM143.284 30V22.6309H144.474V28.127H145.103L144.296 28.5645L148.227 22.6309H149.416V30H148.227V24.5039H147.598L148.404 24.0664L144.474 30H143.284ZM154.27 30.1367C153.745 30.1367 153.271 30.0547 152.848 29.8906C152.428 29.7266 152.087 29.4987 151.822 29.207C151.558 28.9108 151.401 28.5645 151.351 28.168L151.344 28.1133H152.554L152.567 28.168C152.645 28.4688 152.836 28.708 153.142 28.8857C153.447 29.0635 153.823 29.1523 154.27 29.1523C154.812 29.1523 155.236 29.0339 155.541 28.7969C155.846 28.5599 155.999 28.2591 155.999 27.8945V27.8809C155.999 27.4798 155.851 27.1859 155.555 26.999C155.263 26.8076 154.835 26.7119 154.27 26.7119H153.121V25.7275H154.27C154.743 25.7275 155.106 25.6341 155.356 25.4473C155.612 25.2559 155.739 24.9688 155.739 24.5859V24.5723C155.739 24.2578 155.618 23.998 155.377 23.793C155.14 23.5833 154.785 23.4785 154.311 23.4785C153.891 23.4785 153.536 23.5651 153.244 23.7383C152.952 23.9115 152.777 24.1462 152.718 24.4424L152.711 24.4766H151.549L151.556 24.4287C151.615 24.0322 151.765 23.6904 152.007 23.4033C152.253 23.1117 152.572 22.8883 152.964 22.7334C153.36 22.5739 153.809 22.4941 154.311 22.4941C154.862 22.4941 155.329 22.5785 155.712 22.7471C156.099 22.9157 156.393 23.1504 156.594 23.4512C156.799 23.7474 156.901 24.0915 156.901 24.4834V24.4971C156.901 24.8708 156.79 25.208 156.566 25.5088C156.343 25.8096 156.049 26.0033 155.685 26.0898V26.1992C156.008 26.2676 156.279 26.377 156.498 26.5273C156.721 26.6777 156.888 26.8623 156.997 27.0811C157.111 27.2998 157.168 27.5459 157.168 27.8193V27.833C157.168 28.2887 157.045 28.6898 156.799 29.0361C156.557 29.3825 156.218 29.6536 155.78 29.8496C155.347 30.041 154.844 30.1367 154.27 30.1367ZM162.145 30.1367C161.019 30.1367 160.164 29.7585 159.581 29.002C159.002 28.2409 158.713 27.1221 158.713 25.6455V25.6318C158.713 24.3285 158.84 23.2643 159.096 22.4395C159.351 21.6146 159.75 21.0016 160.292 20.6006C160.839 20.195 161.552 19.9717 162.432 19.9307L163.17 19.8965C163.466 19.8828 163.781 19.8464 164.113 19.7871C164.446 19.7233 164.772 19.6276 165.091 19.5V20.5527C164.977 20.6621 164.744 20.7578 164.394 20.8398C164.043 20.9173 163.653 20.9674 163.225 20.9902L162.473 21.0244C161.903 21.0472 161.431 21.1589 161.058 21.3594C160.688 21.5599 160.399 21.8675 160.189 22.2822C159.98 22.6969 159.829 23.2393 159.738 23.9092L159.718 24.0596H159.827C160.078 23.6175 160.417 23.2803 160.846 23.0479C161.274 22.8154 161.766 22.6992 162.322 22.6992C162.983 22.6992 163.557 22.8496 164.045 23.1504C164.533 23.4466 164.909 23.8659 165.173 24.4082C165.442 24.9505 165.576 25.5931 165.576 26.3359V26.3496C165.576 27.1289 165.437 27.8034 165.159 28.373C164.886 28.9382 164.492 29.3734 163.977 29.6787C163.466 29.984 162.855 30.1367 162.145 30.1367ZM162.145 29.084C162.614 29.084 163.013 28.9769 163.341 28.7627C163.674 28.5439 163.926 28.2318 164.1 27.8262C164.273 27.416 164.359 26.9238 164.359 26.3496V26.3359C164.359 25.7845 164.273 25.3174 164.1 24.9346C163.926 24.5518 163.674 24.2601 163.341 24.0596C163.013 23.8545 162.614 23.752 162.145 23.752C161.675 23.752 161.274 23.8545 160.941 24.0596C160.613 24.2601 160.363 24.5518 160.189 24.9346C160.016 25.3174 159.93 25.7845 159.93 26.3359V26.3496C159.93 26.9238 160.016 27.416 160.189 27.8262C160.363 28.2318 160.613 28.5439 160.941 28.7627C161.274 28.9769 161.675 29.084 162.145 29.084ZM167.559 32.4609V22.6309H168.748V23.8066H168.857C169.008 23.5332 169.197 23.3008 169.425 23.1094C169.653 22.9134 169.912 22.763 170.204 22.6582C170.496 22.5534 170.812 22.501 171.154 22.501C171.779 22.501 172.321 22.6605 172.781 22.9795C173.246 23.2939 173.606 23.736 173.861 24.3057C174.117 24.8753 174.244 25.543 174.244 26.3086V26.3223C174.244 27.0924 174.117 27.7624 173.861 28.332C173.606 28.9017 173.246 29.3438 172.781 29.6582C172.321 29.9727 171.779 30.1299 171.154 30.1299C170.817 30.1299 170.498 30.0775 170.197 29.9727C169.901 29.8633 169.637 29.7129 169.404 29.5215C169.176 29.3301 168.994 29.1022 168.857 28.8379H168.748V32.4609H167.559ZM170.881 29.0771C171.332 29.0771 171.717 28.9678 172.036 28.749C172.355 28.5257 172.599 28.209 172.768 27.7988C172.941 27.3841 173.027 26.8919 173.027 26.3223V26.3086C173.027 25.7344 172.941 25.2422 172.768 24.832C172.599 24.4219 172.355 24.1074 172.036 23.8887C171.717 23.6654 171.332 23.5537 170.881 23.5537C170.434 23.5537 170.049 23.6654 169.726 23.8887C169.402 24.112 169.154 24.4287 168.98 24.8389C168.807 25.249 168.721 25.7389 168.721 26.3086V26.3223C168.721 26.8874 168.807 27.3773 168.98 27.792C169.154 28.2021 169.402 28.5189 169.726 28.7422C170.049 28.9655 170.434 29.0771 170.881 29.0771ZM178.264 30.1299C177.799 30.1299 177.38 30.041 177.006 29.8633C176.637 29.6855 176.343 29.4326 176.124 29.1045C175.91 28.7764 175.803 28.389 175.803 27.9424V27.9287C175.803 27.2725 176.035 26.7598 176.5 26.3906C176.969 26.0169 177.632 25.805 178.489 25.7549L181.196 25.5908V26.541L178.633 26.7051C178.072 26.737 177.662 26.8532 177.402 27.0537C177.147 27.2542 177.02 27.5368 177.02 27.9014V27.915C177.02 28.2887 177.161 28.5804 177.443 28.79C177.726 28.9951 178.081 29.0977 178.51 29.0977C178.915 29.0977 179.275 29.0179 179.59 28.8584C179.904 28.6943 180.15 28.4733 180.328 28.1953C180.51 27.9173 180.602 27.6029 180.602 27.252V24.9551C180.602 24.4993 180.463 24.153 180.185 23.916C179.911 23.6745 179.499 23.5537 178.947 23.5537C178.505 23.5537 178.143 23.6335 177.86 23.793C177.578 23.9479 177.389 24.1689 177.293 24.4561L177.286 24.4766H176.097L176.104 24.4355C176.167 24.0482 176.327 23.7109 176.582 23.4238C176.842 23.1322 177.177 22.9066 177.587 22.7471C177.997 22.583 178.464 22.501 178.988 22.501C179.59 22.501 180.098 22.599 180.513 22.7949C180.932 22.9909 181.249 23.2734 181.463 23.6426C181.682 24.0072 181.791 24.4447 181.791 24.9551V30H180.602V28.9131H180.492C180.337 29.1729 180.148 29.3939 179.925 29.5762C179.706 29.7585 179.458 29.8975 179.18 29.9932C178.902 30.0843 178.596 30.1299 178.264 30.1299ZM188.935 30V26.6641H185.284V30H184.095V22.6309H185.284V25.6797H188.935V22.6309H190.124V30H188.935ZM197.302 30V26.6641H193.651V30H192.462V22.6309H193.651V25.6797H197.302V22.6309H198.491V30H197.302ZM203.864 30.1299C203.167 30.1299 202.563 29.9772 202.053 29.6719C201.547 29.362 201.155 28.9222 200.877 28.3525C200.604 27.7829 200.467 27.1061 200.467 26.3223V26.3086C200.467 25.5202 200.604 24.8411 200.877 24.2715C201.155 23.7018 201.547 23.2643 202.053 22.959C202.563 22.6536 203.167 22.501 203.864 22.501C204.566 22.501 205.17 22.6536 205.676 22.959C206.182 23.2643 206.571 23.7018 206.845 24.2715C207.123 24.8411 207.262 25.5202 207.262 26.3086V26.3223C207.262 27.1061 207.123 27.7829 206.845 28.3525C206.571 28.9222 206.182 29.362 205.676 29.6719C205.17 29.9772 204.566 30.1299 203.864 30.1299ZM203.864 29.0771C204.329 29.0771 204.723 28.9678 205.047 28.749C205.37 28.5303 205.617 28.2158 205.785 27.8057C205.958 27.3955 206.045 26.901 206.045 26.3223V26.3086C206.045 25.7253 205.958 25.2285 205.785 24.8184C205.617 24.4082 205.37 24.096 205.047 23.8818C204.723 23.6631 204.329 23.5537 203.864 23.5537C203.399 23.5537 203.005 23.6631 202.682 23.8818C202.358 24.096 202.11 24.4082 201.937 24.8184C201.768 25.2285 201.684 25.7253 201.684 26.3086V26.3223C201.684 26.901 201.768 27.3955 201.937 27.8057C202.11 28.2158 202.358 28.5303 202.682 28.749C203.005 28.9678 203.399 29.0771 203.864 29.0771ZM212.252 30.1299C211.55 30.1299 210.946 29.9749 210.44 29.665C209.939 29.3551 209.552 28.9176 209.278 28.3525C209.009 27.7829 208.875 27.113 208.875 26.3428V26.3359C208.875 25.5749 209.009 24.9072 209.278 24.333C209.552 23.7588 209.937 23.3099 210.434 22.9863C210.93 22.6628 211.511 22.501 212.177 22.501C212.847 22.501 213.421 22.6559 213.899 22.9658C214.382 23.2757 214.752 23.7087 215.007 24.2646C215.267 24.8161 215.396 25.4587 215.396 26.1924V26.6572H209.49V25.707H214.788L214.2 26.5752V26.1035C214.2 25.5247 214.114 25.0485 213.94 24.6748C213.767 24.3011 213.528 24.0231 213.223 23.8408C212.917 23.654 212.566 23.5605 212.17 23.5605C211.773 23.5605 211.418 23.6585 211.104 23.8545C210.794 24.0459 210.548 24.3307 210.365 24.709C210.183 25.0872 210.092 25.5521 210.092 26.1035V26.5752C210.092 27.0993 210.181 27.5482 210.358 27.9219C210.536 28.291 210.789 28.5758 211.117 28.7764C211.445 28.9723 211.833 29.0703 212.279 29.0703C212.612 29.0703 212.901 29.0247 213.147 28.9336C213.394 28.8424 213.596 28.7262 213.756 28.585C213.915 28.4437 214.027 28.3001 214.091 28.1543L214.118 28.0928H215.308L215.294 28.1475C215.23 28.3981 215.116 28.6419 214.952 28.8789C214.793 29.1113 214.585 29.3232 214.33 29.5146C214.075 29.7015 213.772 29.8519 213.421 29.9658C213.075 30.0752 212.685 30.1299 212.252 30.1299Z" fill="black"/>
<g clip-path="url(#clip0_459_835)">
<path d="M366 22.3616C366 27.0775 370.25 31.7158 376.964 35.7011C377.214 35.845 377.571 36 377.821 36C378.071 36 378.429 35.845 378.69 35.7011C385.393 31.7158 389.643 27.0775 389.643 22.3616C389.643 18.4428 386.75 15.6753 382.893 15.6753C380.69 15.6753 378.905 16.6494 377.821 18.1439C376.762 16.6605 374.952 15.6753 372.75 15.6753C368.893 15.6753 366 18.4428 366 22.3616ZM367.917 22.3616C367.917 19.417 369.964 17.4576 372.726 17.4576C374.964 17.4576 376.25 18.7528 377.012 19.8598C377.333 20.3026 377.536 20.4244 377.821 20.4244C378.107 20.4244 378.286 20.2915 378.631 19.8598C379.452 18.7749 380.69 17.4576 382.917 17.4576C385.679 17.4576 387.726 19.417 387.726 22.3616C387.726 26.4796 383.048 30.9188 378.071 33.9963C377.952 34.0738 377.869 34.1291 377.821 34.1291C377.774 34.1291 377.69 34.0738 377.583 33.9963C372.595 30.9188 367.917 26.4796 367.917 22.3616Z" fill="black" fill-opacity="0.85"/>
</g>
<line x1="366.5" y1="39" x2="366.5" y2="48" stroke="#FF4E4E"/>
<line x1="366" y1="43" x2="374" y2="43" stroke="#FF4E4E"/>
<path d="M374.356 45.5V45.0044L375.492 43.8838C375.658 43.7243 375.786 43.5933 375.877 43.4907C375.969 43.3866 376.032 43.2962 376.068 43.2197C376.104 43.1416 376.122 43.061 376.122 42.978V42.9707C376.122 42.8698 376.1 42.7811 376.056 42.7046C376.013 42.6281 375.951 42.5687 375.87 42.5264C375.789 42.4824 375.692 42.4604 375.58 42.4604C375.466 42.4604 375.365 42.4849 375.277 42.5337C375.189 42.5809 375.121 42.6468 375.072 42.7314C375.023 42.8145 374.999 42.9121 374.999 43.0244V43.0366H374.317L374.315 43.0244C374.315 42.7998 374.369 42.6021 374.479 42.4312C374.589 42.2603 374.741 42.1268 374.935 42.0308C375.13 41.9347 375.357 41.8867 375.614 41.8867C375.856 41.8867 376.069 41.9299 376.253 42.0161C376.439 42.1024 376.584 42.222 376.688 42.375C376.794 42.528 376.847 42.7062 376.847 42.9097V42.917C376.847 43.0505 376.821 43.1815 376.769 43.3101C376.716 43.437 376.629 43.5745 376.505 43.7227C376.381 43.8708 376.212 44.0441 375.997 44.2427L375.147 45.0361L375.345 44.7139V45.0361L375.147 44.9067H376.898V45.5H374.356ZM379.173 45.5V44.853H377.447V44.2744C377.537 44.1149 377.627 43.957 377.718 43.8008C377.809 43.6429 377.901 43.4867 377.994 43.332C378.089 43.1758 378.182 43.022 378.275 42.8706C378.369 42.7176 378.464 42.5671 378.558 42.4189C378.653 42.2692 378.747 42.1219 378.841 41.9771H379.876V44.2622H380.335V44.853H379.876V45.5H379.173ZM378.111 44.2817H379.188V42.5361H379.149C379.081 42.6419 379.011 42.7502 378.939 42.8608C378.869 42.9715 378.798 43.0846 378.727 43.2002C378.657 43.3158 378.586 43.4321 378.514 43.5493C378.444 43.6649 378.375 43.7812 378.307 43.8984C378.24 44.014 378.175 44.1287 378.111 44.2427V44.2817Z" fill="black"/>
<line x1="381" y1="43" x2="389" y2="43" stroke="#FF4E4E"/>
<line x1="389.5" y1="39" x2="389.5" y2="48" stroke="#FF4E4E"/>
<line x1="390.5" y1="21" x2="390.5" y2="30" stroke="#FF4E4E"/>
<line x1="390" y1="25" x2="394.5" y2="25" stroke="#FF4E4E"/>
<path d="M395.718 27.5V24.6729H395.674L394.81 25.2734V24.6094L395.721 23.9771H396.456V27.5H395.718ZM399.048 27.5V26.853H397.322V26.2744C397.412 26.1149 397.502 25.957 397.593 25.8008C397.684 25.6429 397.776 25.4867 397.869 25.332C397.964 25.1758 398.057 25.022 398.15 24.8706C398.244 24.7176 398.339 24.5671 398.433 24.4189C398.528 24.2692 398.622 24.1219 398.716 23.9771H399.751V26.2622H400.21V26.853H399.751V27.5H399.048ZM397.986 26.2817H399.063V24.5361H399.024C398.956 24.6419 398.886 24.7502 398.814 24.8608C398.744 24.9715 398.673 25.0846 398.602 25.2002C398.532 25.3158 398.461 25.4321 398.389 25.5493C398.319 25.6649 398.25 25.7812 398.182 25.8984C398.115 26.014 398.05 26.1287 397.986 26.2427V26.2817Z" fill="black"/>
<line x1="400.5" y1="25" x2="405" y2="25" stroke="#FF4E4E"/>
<line x1="405.5" y1="21" x2="405.5" y2="30" stroke="#FF4E4E"/>
<line x1="45.5" y1="21" x2="45.5" y2="30" stroke="#FF4E4E"/>
<line x1="45" y1="25" x2="49.5" y2="25" stroke="#FF4E4E"/>
<path d="M50.7183 27.5V24.6729H50.6743L49.8101 25.2734V24.6094L50.7207 23.9771H51.4556V27.5H50.7183ZM53.8188 27.5903C53.6138 27.5903 53.4233 27.5537 53.2476 27.4805C53.0718 27.4072 52.9172 27.2957 52.7837 27.146C52.6519 26.9963 52.5485 26.8075 52.4736 26.5796C52.4004 26.3517 52.3638 26.0824 52.3638 25.7715V25.7666C52.3638 25.3743 52.4224 25.0382 52.5396 24.7583C52.6584 24.4767 52.8268 24.2611 53.0449 24.1113C53.263 23.9616 53.5218 23.8867 53.8213 23.8867C54.0492 23.8867 54.2542 23.9282 54.4365 24.0112C54.6188 24.0942 54.7686 24.2074 54.8857 24.3506C55.0046 24.4938 55.0819 24.6574 55.1177 24.8413L55.1226 24.8657H54.4023L54.3926 24.8438C54.3649 24.7689 54.3242 24.7046 54.2705 24.6509C54.2184 24.5955 54.1549 24.5524 54.0801 24.5215C54.0052 24.4906 53.9198 24.4751 53.8237 24.4751C53.6545 24.4751 53.5153 24.5256 53.4062 24.6265C53.2972 24.7274 53.215 24.8641 53.1597 25.0366C53.106 25.2091 53.0742 25.402 53.0645 25.6152C53.0628 25.6396 53.062 25.6641 53.062 25.6885C53.062 25.7113 53.062 25.7357 53.062 25.7617L53.1719 26.3501C53.1719 26.4738 53.2004 26.5853 53.2573 26.6846C53.3143 26.7839 53.3916 26.8628 53.4893 26.9214C53.5869 26.9784 53.6951 27.0068 53.814 27.0068C53.9328 27.0068 54.0402 26.9784 54.1362 26.9214C54.2339 26.8644 54.3112 26.7879 54.3682 26.6919C54.4268 26.5942 54.4561 26.4852 54.4561 26.3647V26.3599C54.4561 26.2362 54.4284 26.1271 54.373 26.0327C54.3177 25.9367 54.242 25.861 54.146 25.8057C54.0516 25.7503 53.9425 25.7227 53.8188 25.7227C53.6984 25.7227 53.5894 25.7495 53.4917 25.8032C53.394 25.8569 53.3159 25.931 53.2573 26.0254C53.2004 26.1182 53.1719 26.2256 53.1719 26.3477V26.3501H53.0254V25.6958H53.1108C53.1548 25.6047 53.2166 25.52 53.2964 25.4419C53.3761 25.3638 53.4762 25.3011 53.5967 25.2539C53.7171 25.2051 53.8579 25.1807 54.019 25.1807C54.2485 25.1807 54.4495 25.2303 54.6221 25.3296C54.7946 25.4289 54.9289 25.5656 55.0249 25.7397C55.1209 25.9139 55.1689 26.1125 55.1689 26.3354V26.3403C55.1689 26.5796 55.1112 26.7936 54.9956 26.9824C54.8817 27.1712 54.723 27.3201 54.5195 27.4292C54.3177 27.5366 54.0841 27.5903 53.8188 27.5903Z" fill="black"/>
<line x1="55.5" y1="25" x2="60" y2="25" stroke="#FF4E4E"/>
<line x1="60.5" y1="21" x2="60.5" y2="30" stroke="#FF4E4E"/>
<rect x="366.5" y="14.5" width="23" height="23" stroke="#00A3FF"/>
<rect x="-0.5" y="0.5" width="304" height="16" transform="matrix(-1 0 0 1 365 17)" stroke="#00A3FF"/>
<line x1="354" y1="15.5" x2="363" y2="15.5" stroke="#FF4E4E"/>
<line x1="358" y1="24" x2="358" y2="16" stroke="#FF4E4E"/>
<path d="M355.968 29V28.5044L357.104 27.3838C357.27 27.2243 357.398 27.0933 357.489 26.9907C357.58 26.8866 357.644 26.7962 357.68 26.7197C357.715 26.6416 357.733 26.561 357.733 26.478V26.4707C357.733 26.3698 357.711 26.2811 357.667 26.2046C357.625 26.1281 357.563 26.0687 357.482 26.0264C357.401 25.9824 357.304 25.9604 357.191 25.9604C357.077 25.9604 356.977 25.9849 356.889 26.0337C356.801 26.0809 356.732 26.1468 356.684 26.2314C356.635 26.3145 356.61 26.4121 356.61 26.5244V26.5366H355.929L355.927 26.5244C355.927 26.2998 355.981 26.1021 356.09 25.9312C356.201 25.7603 356.353 25.6268 356.547 25.5308C356.742 25.4347 356.968 25.3867 357.226 25.3867C357.468 25.3867 357.681 25.4299 357.865 25.5161C358.051 25.6024 358.196 25.722 358.3 25.875C358.406 26.028 358.458 26.2062 358.458 26.4097V26.417C358.458 26.5505 358.432 26.6815 358.38 26.8101C358.328 26.937 358.24 27.0745 358.117 27.2227C357.993 27.3708 357.824 27.5441 357.609 27.7427L356.759 28.5361L356.957 28.2139V28.5361L356.759 28.4067H358.51V29H355.968ZM360.048 29V26.1729H360.004L359.14 26.7734V26.1094L360.05 25.4771H360.785V29H360.048Z" fill="black"/>
<line x1="358" y1="38" x2="358" y2="30" stroke="#FF4E4E"/>
<line x1="354" y1="37.5" x2="363" y2="37.5" stroke="#FF4E4E"/>
<line x1="288" y1="1.5" x2="297" y2="1.5" stroke="#FF4E4E"/>
<line x1="292" y1="6.5" x2="292" y2="2" stroke="#FF4E4E"/>
<path d="M290.73 11.5V8.67285H290.686L289.822 9.27344V8.60938L290.732 7.97705H291.467V11.5H290.73ZM293.831 11.5903C293.625 11.5903 293.435 11.5537 293.259 11.4805C293.083 11.4072 292.929 11.2957 292.795 11.146C292.664 10.9963 292.56 10.8075 292.485 10.5796C292.412 10.3517 292.375 10.0824 292.375 9.77148V9.7666C292.375 9.37435 292.434 9.03825 292.551 8.7583C292.67 8.47673 292.839 8.26107 293.057 8.11133C293.275 7.96159 293.534 7.88672 293.833 7.88672C294.061 7.88672 294.266 7.92822 294.448 8.01123C294.631 8.09424 294.78 8.20736 294.897 8.35059C295.016 8.49382 295.094 8.65739 295.129 8.84131L295.134 8.86572H294.414L294.404 8.84375C294.377 8.76888 294.336 8.70459 294.282 8.65088C294.23 8.59554 294.167 8.55241 294.092 8.52148C294.017 8.49056 293.931 8.4751 293.835 8.4751C293.666 8.4751 293.527 8.52555 293.418 8.62646C293.309 8.72738 293.227 8.8641 293.171 9.03662C293.118 9.20915 293.086 9.40202 293.076 9.61523C293.075 9.63965 293.074 9.66406 293.074 9.68848C293.074 9.71126 293.074 9.73568 293.074 9.76172L293.184 10.3501C293.184 10.4738 293.212 10.5853 293.269 10.6846C293.326 10.7839 293.403 10.8628 293.501 10.9214C293.599 10.9784 293.707 11.0068 293.826 11.0068C293.944 11.0068 294.052 10.9784 294.148 10.9214C294.246 10.8644 294.323 10.7879 294.38 10.6919C294.438 10.5942 294.468 10.4852 294.468 10.3647V10.3599C294.468 10.2362 294.44 10.1271 294.385 10.0327C294.329 9.93669 294.254 9.861 294.158 9.80566C294.063 9.75033 293.954 9.72266 293.831 9.72266C293.71 9.72266 293.601 9.74951 293.503 9.80322C293.406 9.85693 293.328 9.93099 293.269 10.0254C293.212 10.1182 293.184 10.2256 293.184 10.3477V10.3501H293.037V9.6958H293.123C293.167 9.60465 293.228 9.52002 293.308 9.44189C293.388 9.36377 293.488 9.30111 293.608 9.25391C293.729 9.20508 293.87 9.18066 294.031 9.18066C294.26 9.18066 294.461 9.23031 294.634 9.32959C294.806 9.42887 294.941 9.56559 295.037 9.73975C295.133 9.9139 295.181 10.1125 295.181 10.3354V10.3403C295.181 10.5796 295.123 10.7936 295.007 10.9824C294.893 11.1712 294.735 11.3201 294.531 11.4292C294.329 11.5366 294.096 11.5903 293.831 11.5903Z" fill="black"/>
<line x1="292" y1="17" x2="292" y2="12.5" stroke="#FF4E4E"/>
<line x1="288" y1="16.5" x2="297" y2="16.5" stroke="#FF4E4E"/>
<line x1="381" y1="1.5" x2="390" y2="1.5" stroke="#FF4E4E"/>
<line x1="385" y1="5" x2="385" y2="2" stroke="#FF4E4E"/>
<path d="M384.157 9.57031V8.92822H386.843V9.57031H384.157ZM384.157 8.2251V7.58301H386.843V8.2251H384.157Z" fill="black"/>
<line x1="385" y1="14" x2="385" y2="11" stroke="#FF4E4E"/>
<line x1="381" y1="13.5" x2="390" y2="13.5" stroke="#FF4E4E"/>
<line x1="288" y1="34.5" x2="297" y2="34.5" stroke="#FF4E4E"/>
<line x1="292" y1="39.5" x2="292" y2="35" stroke="#FF4E4E"/>
<path d="M290.73 44.5V41.6729H290.686L289.822 42.2734V41.6094L290.732 40.9771H291.467V44.5H290.73ZM293.831 44.5903C293.625 44.5903 293.435 44.5537 293.259 44.4805C293.083 44.4072 292.929 44.2957 292.795 44.146C292.664 43.9963 292.56 43.8075 292.485 43.5796C292.412 43.3517 292.375 43.0824 292.375 42.7715V42.7666C292.375 42.3743 292.434 42.0382 292.551 41.7583C292.67 41.4767 292.839 41.2611 293.057 41.1113C293.275 40.9616 293.534 40.8867 293.833 40.8867C294.061 40.8867 294.266 40.9282 294.448 41.0112C294.631 41.0942 294.78 41.2074 294.897 41.3506C295.016 41.4938 295.094 41.6574 295.129 41.8413L295.134 41.8657H294.414L294.404 41.8438C294.377 41.7689 294.336 41.7046 294.282 41.6509C294.23 41.5955 294.167 41.5524 294.092 41.5215C294.017 41.4906 293.931 41.4751 293.835 41.4751C293.666 41.4751 293.527 41.5256 293.418 41.6265C293.309 41.7274 293.227 41.8641 293.171 42.0366C293.118 42.2091 293.086 42.402 293.076 42.6152C293.075 42.6396 293.074 42.6641 293.074 42.6885C293.074 42.7113 293.074 42.7357 293.074 42.7617L293.184 43.3501C293.184 43.4738 293.212 43.5853 293.269 43.6846C293.326 43.7839 293.403 43.8628 293.501 43.9214C293.599 43.9784 293.707 44.0068 293.826 44.0068C293.944 44.0068 294.052 43.9784 294.148 43.9214C294.246 43.8644 294.323 43.7879 294.38 43.6919C294.438 43.5942 294.468 43.4852 294.468 43.3647V43.3599C294.468 43.2362 294.44 43.1271 294.385 43.0327C294.329 42.9367 294.254 42.861 294.158 42.8057C294.063 42.7503 293.954 42.7227 293.831 42.7227C293.71 42.7227 293.601 42.7495 293.503 42.8032C293.406 42.8569 293.328 42.931 293.269 43.0254C293.212 43.1182 293.184 43.2256 293.184 43.3477V43.3501H293.037V42.6958H293.123C293.167 42.6047 293.228 42.52 293.308 42.4419C293.388 42.3638 293.488 42.3011 293.608 42.2539C293.729 42.2051 293.87 42.1807 294.031 42.1807C294.26 42.1807 294.461 42.2303 294.634 42.3296C294.806 42.4289 294.941 42.5656 295.037 42.7397C295.133 42.9139 295.181 43.1125 295.181 43.3354V43.3403C295.181 43.5796 295.123 43.7936 295.007 43.9824C294.893 44.1712 294.735 44.3201 294.531 44.4292C294.329 44.5366 294.096 44.5903 293.831 44.5903Z" fill="black"/>
<line x1="292" y1="50" x2="292" y2="45.5" stroke="#FF4E4E"/>
<line x1="288" y1="49.5" x2="297" y2="49.5" stroke="#FF4E4E"/>
<line x1="391" y1="37.5" x2="400" y2="37.5" stroke="#FF4E4E"/>
<line x1="395" y1="41" x2="395" y2="38" stroke="#FF4E4E"/>
<path d="M394.157 45.5703V44.9282H396.843V45.5703H394.157ZM394.157 44.2251V43.583H396.843V44.2251H394.157Z" fill="black"/>
<line x1="395" y1="50" x2="395" y2="47" stroke="#FF4E4E"/>
<line x1="391" y1="49.5" x2="400" y2="49.5" stroke="#FF4E4E"/>
<path d="M45 17C45 8.16344 52.1634 1 61 1" stroke="#FF4E4E"/>
<path d="M46.2183 16V13.1729H46.1743L45.3101 13.7734V13.1094L46.2207 12.4771H46.9556V16H46.2183ZM49.3188 16.0903C49.1138 16.0903 48.9233 16.0537 48.7476 15.9805C48.5718 15.9072 48.4172 15.7957 48.2837 15.646C48.1519 15.4963 48.0485 15.3075 47.9736 15.0796C47.9004 14.8517 47.8638 14.5824 47.8638 14.2715V14.2666C47.8638 13.8743 47.9224 13.5382 48.0396 13.2583C48.1584 12.9767 48.3268 12.7611 48.5449 12.6113C48.763 12.4616 49.0218 12.3867 49.3213 12.3867C49.5492 12.3867 49.7542 12.4282 49.9365 12.5112C50.1188 12.5942 50.2686 12.7074 50.3857 12.8506C50.5046 12.9938 50.5819 13.1574 50.6177 13.3413L50.6226 13.3657H49.9023L49.8926 13.3438C49.8649 13.2689 49.8242 13.2046 49.7705 13.1509C49.7184 13.0955 49.6549 13.0524 49.5801 13.0215C49.5052 12.9906 49.4198 12.9751 49.3237 12.9751C49.1545 12.9751 49.0153 13.0256 48.9062 13.1265C48.7972 13.2274 48.715 13.3641 48.6597 13.5366C48.606 13.7091 48.5742 13.902 48.5645 14.1152C48.5628 14.1396 48.562 14.1641 48.562 14.1885C48.562 14.2113 48.562 14.2357 48.562 14.2617L48.6719 14.8501C48.6719 14.9738 48.7004 15.0853 48.7573 15.1846C48.8143 15.2839 48.8916 15.3628 48.9893 15.4214C49.0869 15.4784 49.1951 15.5068 49.314 15.5068C49.4328 15.5068 49.5402 15.4784 49.6362 15.4214C49.7339 15.3644 49.8112 15.2879 49.8682 15.1919C49.9268 15.0942 49.9561 14.9852 49.9561 14.8647V14.8599C49.9561 14.7362 49.9284 14.6271 49.873 14.5327C49.8177 14.4367 49.742 14.361 49.646 14.3057C49.5516 14.2503 49.4425 14.2227 49.3188 14.2227C49.1984 14.2227 49.0894 14.2495 48.9917 14.3032C48.894 14.3569 48.8159 14.431 48.7573 14.5254C48.7004 14.6182 48.6719 14.7256 48.6719 14.8477V14.8501H48.5254V14.1958H48.6108C48.6548 14.1047 48.7166 14.02 48.7964 13.9419C48.8761 13.8638 48.9762 13.8011 49.0967 13.7539C49.2171 13.7051 49.3579 13.6807 49.519 13.6807C49.7485 13.6807 49.9495 13.7303 50.1221 13.8296C50.2946 13.9289 50.4289 14.0656 50.5249 14.2397C50.6209 14.4139 50.6689 14.6125 50.6689 14.8354V14.8403C50.6689 15.0796 50.6112 15.2936 50.4956 15.4824C50.3817 15.6712 50.223 15.8201 50.0195 15.9292C49.8177 16.0366 49.5841 16.0903 49.3188 16.0903Z" fill="black"/>
<line x1="17" y1="1.5" x2="26" y2="1.5" stroke="#FF4E4E"/>
<line x1="21" y1="23" x2="21" y2="2" stroke="#FF4E4E"/>
<path d="M1.14355 28L0.210938 24.4771H0.977539L1.52686 26.9941H1.56592L2.20801 24.4771H2.83057L3.48486 26.9941H3.52393L4.06836 24.4771H4.83008L3.89502 28H3.2041L2.5376 25.627H2.49854L1.83936 28H1.14355ZM5.47217 28V24.4771H6.93945C7.20638 24.4771 7.43343 24.5226 7.62061 24.6138C7.80941 24.7033 7.95264 24.8319 8.05029 24.9995C8.14958 25.1672 8.19922 25.3665 8.19922 25.5977V25.6025C8.19922 25.8288 8.14307 26.0322 8.03076 26.2129C7.92008 26.3919 7.76383 26.5213 7.56201 26.6011L8.3042 28H7.46924L6.8125 26.7109C6.80762 26.7109 6.80192 26.7109 6.79541 26.7109C6.7889 26.7109 6.7832 26.7109 6.77832 26.7109H6.20947V28H5.47217ZM6.20947 26.1738H6.85889C7.04281 26.1738 7.18604 26.125 7.28857 26.0273C7.39274 25.9281 7.44482 25.7913 7.44482 25.6172V25.6123C7.44482 25.4414 7.39193 25.3055 7.28613 25.2046C7.18034 25.1037 7.03467 25.0532 6.84912 25.0532H6.20947V26.1738ZM8.69238 28L9.91553 24.4771H10.543V25.1802H10.3281L9.46631 28H8.69238ZM9.34668 27.1455L9.52734 26.5938H11.1558L11.3364 27.1455H9.34668ZM11.2314 28L10.3721 25.1802V24.4771H10.7822L12.0078 28H11.2314ZM12.9746 26.8892V26.313H13.8779C14.0895 26.313 14.2539 26.2593 14.3711 26.1519C14.4899 26.0428 14.5493 25.8882 14.5493 25.688V25.6831C14.5493 25.4829 14.4899 25.3291 14.3711 25.2217C14.2539 25.1143 14.0895 25.0605 13.8779 25.0605H12.9746V24.4771H14.0586C14.306 24.4771 14.5225 24.5275 14.708 24.6284C14.8936 24.7277 15.0376 24.8677 15.1401 25.0483C15.2443 25.229 15.2964 25.4398 15.2964 25.6807V25.6855C15.2964 25.9281 15.2443 26.1396 15.1401 26.3203C15.0376 26.501 14.8936 26.641 14.708 26.7402C14.5225 26.8395 14.306 26.8892 14.0586 26.8892H12.9746ZM12.606 28V24.4771H13.3433V28H12.606ZM15.0596 28.8862V28.2441H18.1968V28.8862H15.0596ZM19.8887 28.0903C19.5485 28.0903 19.2547 28.0155 19.0073 27.8657C18.7599 27.716 18.5695 27.5028 18.436 27.2261C18.3026 26.9494 18.2358 26.6206 18.2358 26.2397V26.2349C18.2358 25.854 18.3026 25.5252 18.436 25.2485C18.5695 24.9718 18.7591 24.7594 19.0049 24.6113C19.2523 24.4616 19.5469 24.3867 19.8887 24.3867C20.167 24.3867 20.4168 24.4412 20.6382 24.5503C20.8612 24.6593 21.041 24.8099 21.1777 25.002C21.3145 25.194 21.3942 25.4137 21.417 25.6611V25.6929H20.7017L20.6992 25.6758C20.6748 25.5439 20.6252 25.4284 20.5503 25.3291C20.4754 25.2282 20.381 25.1501 20.2671 25.0947C20.1548 25.0394 20.0286 25.0117 19.8887 25.0117C19.7048 25.0117 19.5452 25.0614 19.4102 25.1606C19.2751 25.2583 19.1709 25.3991 19.0977 25.583C19.026 25.7653 18.9902 25.9826 18.9902 26.2349V26.2397C18.9902 26.4904 19.026 26.7077 19.0977 26.8916C19.1709 27.0755 19.2751 27.2171 19.4102 27.3164C19.5452 27.4157 19.7056 27.4653 19.8911 27.4653C20.0327 27.4653 20.1589 27.4401 20.2695 27.3896C20.3818 27.3376 20.4746 27.2651 20.5479 27.1724C20.6227 27.078 20.6724 26.9681 20.6968 26.8428L20.7017 26.8208H21.4194V26.8501C21.3934 27.0959 21.3128 27.3115 21.1777 27.4971C21.0426 27.6826 20.8652 27.8283 20.6455 27.9341C20.4258 28.0382 20.1735 28.0903 19.8887 28.0903ZM23.6387 28.0903C23.2904 28.0903 22.9893 28.0155 22.7354 27.8657C22.4814 27.7144 22.2853 27.5003 22.147 27.2236C22.0103 26.9469 21.9419 26.619 21.9419 26.2397V26.2349C21.9419 25.854 22.0111 25.526 22.1494 25.251C22.2894 24.9743 22.4863 24.7611 22.7402 24.6113C22.9941 24.4616 23.2936 24.3867 23.6387 24.3867C23.9854 24.3867 24.2848 24.4616 24.5371 24.6113C24.791 24.7611 24.9871 24.9743 25.1255 25.251C25.2638 25.5277 25.333 25.8556 25.333 26.2349V26.2397C25.333 26.619 25.2638 26.9469 25.1255 27.2236C24.9888 27.5003 24.7935 27.7144 24.5396 27.8657C24.2856 28.0155 23.9854 28.0903 23.6387 28.0903ZM23.6387 27.4653C23.8291 27.4653 23.9951 27.4149 24.1367 27.314C24.2783 27.2131 24.3874 27.0706 24.4639 26.8867C24.542 26.7028 24.5811 26.4871 24.5811 26.2397V26.2349C24.5811 25.9858 24.542 25.7702 24.4639 25.5879C24.3874 25.404 24.2783 25.2624 24.1367 25.1631C23.9951 25.0622 23.8291 25.0117 23.6387 25.0117C23.4482 25.0117 23.2822 25.0622 23.1406 25.1631C22.999 25.2624 22.8892 25.404 22.811 25.5879C22.7329 25.7702 22.6938 25.9858 22.6938 26.2349V26.2397C22.6938 26.4871 22.7321 26.7028 22.8086 26.8867C22.8867 27.0706 22.9958 27.2131 23.1357 27.314C23.2773 27.4149 23.445 27.4653 23.6387 27.4653ZM26.0337 28V24.4771H26.6489L28.4629 26.9819L27.9478 26.7207H28.314V24.4771H29.0195V28H28.4092L26.5903 25.4854L27.1079 25.7466H26.7393V28H26.0337ZM30.731 28V25.085H29.6738V24.4771H32.5254V25.085H31.4683V28H30.731ZM33.1772 28V24.4771H35.5112V25.085H33.9146V25.9346H35.4209V26.501H33.9146V27.3921H35.5112V28H33.1772ZM36.2876 28V24.4771H36.9028L38.7168 26.9819L38.2017 26.7207H38.5679V24.4771H39.2734V28H38.6631L36.8442 25.4854L37.3618 25.7466H36.9932V28H36.2876ZM40.9849 28V25.085H39.9277V24.4771H42.7793V25.085H41.7222V28H40.9849Z" fill="white"/>
<line x1="21" y1="50" x2="21" y2="29" stroke="#FF4E4E"/>
<line x1="17" y1="49.5" x2="26" y2="49.5" stroke="#FF4E4E"/>
<line x1="45.5" y1="58" x2="45.5" y2="67" stroke="#FF4E4E"/>
<line x1="45" y1="62" x2="203.5" y2="62" stroke="#FF4E4E"/>
<path d="M203.927 64.5V60.9771H204.772L205.746 63.5552H205.79L206.762 60.9771H207.606V64.5H206.95V62.1025H206.586L207.289 61.0747L205.998 64.5H205.536L204.247 61.0747L204.948 62.1025H204.584V64.5H203.927ZM208.212 64.5L209.435 60.9771H210.062V61.6802H209.848L208.986 64.5H208.212ZM208.866 63.6455L209.047 63.0938H210.675L210.856 63.6455H208.866ZM210.751 64.5L209.892 61.6802V60.9771H210.302L211.527 64.5H210.751ZM212.604 64.5V61.585H211.547V60.9771H214.398V61.585H213.341V64.5H212.604ZM216.425 64.5903C216.085 64.5903 215.791 64.5155 215.543 64.3657C215.296 64.216 215.106 64.0028 214.972 63.7261C214.839 63.4494 214.772 63.1206 214.772 62.7397V62.7349C214.772 62.354 214.839 62.0252 214.972 61.7485C215.106 61.4718 215.295 61.2594 215.541 61.1113C215.788 60.9616 216.083 60.8867 216.425 60.8867C216.703 60.8867 216.953 60.9412 217.174 61.0503C217.397 61.1593 217.577 61.3099 217.714 61.502C217.851 61.694 217.93 61.9137 217.953 62.1611V62.1929H217.238L217.235 62.1758C217.211 62.0439 217.161 61.9284 217.086 61.8291C217.012 61.7282 216.917 61.6501 216.803 61.5947C216.691 61.5394 216.565 61.5117 216.425 61.5117C216.241 61.5117 216.081 61.5614 215.946 61.6606C215.811 61.7583 215.707 61.8991 215.634 62.083C215.562 62.2653 215.526 62.4826 215.526 62.7349V62.7397C215.526 62.9904 215.562 63.2077 215.634 63.3916C215.707 63.5755 215.811 63.7171 215.946 63.8164C216.081 63.9157 216.242 63.9653 216.427 63.9653C216.569 63.9653 216.695 63.9401 216.806 63.8896C216.918 63.8376 217.011 63.7651 217.084 63.6724C217.159 63.578 217.208 63.4681 217.233 63.3428L217.238 63.3208H217.956V63.3501C217.93 63.5959 217.849 63.8115 217.714 63.9971C217.579 64.1826 217.401 64.3283 217.182 64.4341C216.962 64.5382 216.71 64.5903 216.425 64.5903ZM218.634 64.5V60.9771H219.372V62.4077H220.958V60.9771H221.696V64.5H220.958V63.0156H219.372V64.5H218.634ZM222.123 65.3862V64.7441H225.26V65.3862H222.123ZM226.059 63.3892V62.813H226.962C227.174 62.813 227.338 62.7593 227.455 62.6519C227.574 62.5428 227.633 62.3882 227.633 62.188V62.1831C227.633 61.9829 227.574 61.8291 227.455 61.7217C227.338 61.6143 227.174 61.5605 226.962 61.5605H226.059V60.9771H227.143C227.39 60.9771 227.606 61.0275 227.792 61.1284C227.978 61.2277 228.122 61.3677 228.224 61.5483C228.328 61.729 228.38 61.9398 228.38 62.1807V62.1855C228.38 62.4281 228.328 62.6396 228.224 62.8203C228.122 63.001 227.978 63.141 227.792 63.2402C227.606 63.3395 227.39 63.3892 227.143 63.3892H226.059ZM225.69 64.5V60.9771H226.427V64.5H225.69ZM228.563 64.5L229.787 60.9771H230.414V61.6802H230.199L229.337 64.5H228.563ZM229.218 63.6455L229.398 63.0938H231.027L231.208 63.6455H229.218ZM231.103 64.5L230.243 61.6802V60.9771H230.653L231.879 64.5H231.103ZM232.477 64.5V60.9771H233.944C234.211 60.9771 234.438 61.0226 234.625 61.1138C234.814 61.2033 234.958 61.3319 235.055 61.4995C235.154 61.6672 235.204 61.8665 235.204 62.0977V62.1025C235.204 62.3288 235.148 62.5322 235.036 62.7129C234.925 62.8919 234.769 63.0213 234.567 63.1011L235.309 64.5H234.474L233.817 63.2109C233.812 63.2109 233.807 63.2109 233.8 63.2109C233.794 63.2109 233.788 63.2109 233.783 63.2109H233.214V64.5H232.477ZM233.214 62.6738H233.864C234.048 62.6738 234.191 62.625 234.293 62.5273C234.398 62.4281 234.45 62.2913 234.45 62.1172V62.1123C234.45 61.9414 234.397 61.8055 234.291 61.7046C234.185 61.6037 234.04 61.5532 233.854 61.5532H233.214V62.6738ZM235.949 64.5V60.9771H238.283V61.585H236.686V62.4346H238.192V63.001H236.686V63.8921H238.283V64.5H235.949ZM239.059 64.5V60.9771H239.674L241.488 63.4819L240.973 63.2207H241.339V60.9771H242.045V64.5H241.435L239.616 61.9854L240.133 62.2466H239.765V64.5H239.059ZM243.756 64.5V61.585H242.699V60.9771H245.551V61.585H244.494V64.5H243.756Z" fill="white"/>
<line x1="246.5" y1="62" x2="405" y2="62" stroke="#FF4E4E"/>
<line x1="405.5" y1="58" x2="405.5" y2="67" stroke="#FF4E4E"/>
<defs>
<clipPath id="clip0_459_835">
<rect width="24" height="21" fill="white" transform="translate(366 15)"/>
</clipPath>
</defs>
</svg>
