<svg width="406" height="52" viewBox="0 0 406 52" fill="none" xmlns="http://www.w3.org/2000/svg">
<rect x="45" y="1" width="361" height="41" rx="12" fill="#EBEBEB"/>
<path d="M70.0645 26H68.834V17.2432H63.5566V26H62.3262V16.1357H70.0645V26ZM72.5664 28.4609V18.6309H73.7559V19.8066H73.8652C74.0156 19.5332 74.2048 19.3008 74.4326 19.1094C74.6605 18.9134 74.9202 18.763 75.2119 18.6582C75.5036 18.5534 75.8203 18.501 76.1621 18.501C76.7865 18.501 77.3288 18.6605 77.7891 18.9795C78.2539 19.2939 78.6139 19.736 78.8691 20.3057C79.1243 20.8753 79.252 21.543 79.252 22.3086V22.3223C79.252 23.0924 79.1243 23.7624 78.8691 24.332C78.6139 24.9017 78.2539 25.3438 77.7891 25.6582C77.3288 25.9727 76.7865 26.1299 76.1621 26.1299C75.8249 26.1299 75.5059 26.0775 75.2051 25.9727C74.9089 25.8633 74.6445 25.7129 74.4121 25.5215C74.1842 25.3301 74.002 25.1022 73.8652 24.8379H73.7559V28.4609H72.5664ZM75.8887 25.0771C76.3398 25.0771 76.7249 24.9678 77.0439 24.749C77.363 24.5257 77.6068 24.209 77.7754 23.7988C77.9486 23.3841 78.0352 22.8919 78.0352 22.3223V22.3086C78.0352 21.7344 77.9486 21.2422 77.7754 20.832C77.6068 20.4219 77.363 20.1074 77.0439 19.8887C76.7249 19.6654 76.3398 19.5537 75.8887 19.5537C75.4421 19.5537 75.057 19.6654 74.7334 19.8887C74.4098 20.112 74.1615 20.4287 73.9883 20.8389C73.8151 21.249 73.7285 21.7389 73.7285 22.3086V22.3223C73.7285 22.8874 73.8151 23.3773 73.9883 23.792C74.1615 24.2021 74.4098 24.5189 74.7334 24.7422C75.057 24.9655 75.4421 25.0771 75.8887 25.0771ZM84.2764 26.1299C83.5791 26.1299 82.9753 25.9772 82.4648 25.6719C81.959 25.362 81.5671 24.9222 81.2891 24.3525C81.0156 23.7829 80.8789 23.1061 80.8789 22.3223V22.3086C80.8789 21.5202 81.0156 20.8411 81.2891 20.2715C81.5671 19.7018 81.959 19.2643 82.4648 18.959C82.9753 18.6536 83.5791 18.501 84.2764 18.501C84.9782 18.501 85.582 18.6536 86.0879 18.959C86.5938 19.2643 86.9834 19.7018 87.2568 20.2715C87.5348 20.8411 87.6738 21.5202 87.6738 22.3086V22.3223C87.6738 23.1061 87.5348 23.7829 87.2568 24.3525C86.9834 24.9222 86.5938 25.362 86.0879 25.6719C85.582 25.9772 84.9782 26.1299 84.2764 26.1299ZM84.2764 25.0771C84.7412 25.0771 85.1354 24.9678 85.459 24.749C85.7826 24.5303 86.0286 24.2158 86.1973 23.8057C86.3704 23.3955 86.457 22.901 86.457 22.3223V22.3086C86.457 21.7253 86.3704 21.2285 86.1973 20.8184C86.0286 20.4082 85.7826 20.096 85.459 19.8818C85.1354 19.6631 84.7412 19.5537 84.2764 19.5537C83.8115 19.5537 83.4173 19.6631 83.0938 19.8818C82.7702 20.096 82.5218 20.4082 82.3486 20.8184C82.18 21.2285 82.0957 21.7253 82.0957 22.3086V22.3223C82.0957 22.901 82.18 23.3955 82.3486 23.8057C82.5218 24.2158 82.7702 24.5303 83.0938 24.749C83.4173 24.9678 83.8115 25.0771 84.2764 25.0771ZM90.8389 26H89.6494V18.6309H91.0918L93.7168 24.3457H93.8262L96.4648 18.6309H97.8457V26H96.6562V20.7568H96.5264L94.2021 25.7949H93.2861L90.9688 20.7568H90.8389V26ZM103.226 26.1299C102.528 26.1299 101.924 25.9772 101.414 25.6719C100.908 25.362 100.516 24.9222 100.238 24.3525C99.9648 23.7829 99.8281 23.1061 99.8281 22.3223V22.3086C99.8281 21.5202 99.9648 20.8411 100.238 20.2715C100.516 19.7018 100.908 19.2643 101.414 18.959C101.924 18.6536 102.528 18.501 103.226 18.501C103.927 18.501 104.531 18.6536 105.037 18.959C105.543 19.2643 105.933 19.7018 106.206 20.2715C106.484 20.8411 106.623 21.5202 106.623 22.3086V22.3223C106.623 23.1061 106.484 23.7829 106.206 24.3525C105.933 24.9222 105.543 25.362 105.037 25.6719C104.531 25.9772 103.927 26.1299 103.226 26.1299ZM103.226 25.0771C103.69 25.0771 104.085 24.9678 104.408 24.749C104.732 24.5303 104.978 24.2158 105.146 23.8057C105.32 23.3955 105.406 22.901 105.406 22.3223V22.3086C105.406 21.7253 105.32 21.2285 105.146 20.8184C104.978 20.4082 104.732 20.096 104.408 19.8818C104.085 19.6631 103.69 19.5537 103.226 19.5537C102.761 19.5537 102.367 19.6631 102.043 19.8818C101.719 20.096 101.471 20.4082 101.298 20.8184C101.129 21.2285 101.045 21.7253 101.045 22.3086V22.3223C101.045 22.901 101.129 23.3955 101.298 23.8057C101.471 24.2158 101.719 24.5303 102.043 24.749C102.367 24.9678 102.761 25.0771 103.226 25.0771ZM110.164 22.6436H109.788V26H108.599V18.6309H109.788V21.7139H110.164L113.015 18.6309H114.443L111.032 22.2061V21.9941L114.573 26H113.049L110.164 22.6436ZM118.907 26.1299C118.21 26.1299 117.606 25.9772 117.096 25.6719C116.59 25.362 116.198 24.9222 115.92 24.3525C115.646 23.7829 115.51 23.1061 115.51 22.3223V22.3086C115.51 21.5202 115.646 20.8411 115.92 20.2715C116.198 19.7018 116.59 19.2643 117.096 18.959C117.606 18.6536 118.21 18.501 118.907 18.501C119.609 18.501 120.213 18.6536 120.719 18.959C121.225 19.2643 121.614 19.7018 121.888 20.2715C122.166 20.8411 122.305 21.5202 122.305 22.3086V22.3223C122.305 23.1061 122.166 23.7829 121.888 24.3525C121.614 24.9222 121.225 25.362 120.719 25.6719C120.213 25.9772 119.609 26.1299 118.907 26.1299ZM118.907 25.0771C119.372 25.0771 119.766 24.9678 120.09 24.749C120.413 24.5303 120.66 24.2158 120.828 23.8057C121.001 23.3955 121.088 22.901 121.088 22.3223V22.3086C121.088 21.7253 121.001 21.2285 120.828 20.8184C120.66 20.4082 120.413 20.096 120.09 19.8818C119.766 19.6631 119.372 19.5537 118.907 19.5537C118.442 19.5537 118.048 19.6631 117.725 19.8818C117.401 20.096 117.153 20.4082 116.979 20.8184C116.811 21.2285 116.727 21.7253 116.727 22.3086V22.3223C116.727 22.901 116.811 23.3955 116.979 23.8057C117.153 24.2158 117.401 24.5303 117.725 24.749C118.048 24.9678 118.442 25.0771 118.907 25.0771ZM124.383 27.9482H123.275V25.0156H123.891C124.16 24.8379 124.365 24.5394 124.506 24.1201C124.647 23.6963 124.734 23.236 124.766 22.7393L125.053 18.6309H130.077V25.0156H131.253V27.9482H130.146V26H124.383V27.9482ZM128.888 25.0156V19.6152H126.105L125.873 22.7666C125.841 23.2132 125.775 23.6257 125.675 24.0039C125.575 24.3776 125.438 24.6784 125.265 24.9062V25.0156H128.888Z" fill="black"/>
<path d="M285.37 26.2324C284.8 26.2324 284.315 26.1253 283.914 25.9111C283.513 25.6924 283.201 25.3962 282.978 25.0225C282.759 24.6488 282.631 24.2272 282.595 23.7578L282.588 23.6621H283.818L283.825 23.7305C283.853 23.9766 283.925 24.2044 284.044 24.4141C284.162 24.6191 284.331 24.7855 284.55 24.9131C284.769 25.0361 285.04 25.0977 285.363 25.0977C285.91 25.0977 286.327 24.9404 286.614 24.626C286.901 24.307 287.045 23.8467 287.045 23.2451V16.1357H288.275V23.2588C288.275 24.193 288.018 24.9222 287.503 25.4463C286.993 25.9704 286.282 26.2324 285.37 26.2324ZM289.8 26L293.437 16.1357H294.38V17.7285H293.99L291.092 26H289.8ZM291.447 23.1768L291.83 22.1309H296.287L296.67 23.1768H291.447ZM296.998 26L294.1 17.7285V16.1357H294.653L298.29 26H296.998ZM303.253 26.2324C302.533 26.2324 301.904 26.1162 301.366 25.8838C300.833 25.6468 300.409 25.3232 300.095 24.9131C299.785 24.4984 299.605 24.0244 299.555 23.4912L299.548 23.416H300.778L300.785 23.4912C300.817 23.8193 300.942 24.1042 301.161 24.3457C301.384 24.5827 301.681 24.7673 302.05 24.8994C302.424 25.0316 302.847 25.0977 303.321 25.0977C303.768 25.0977 304.164 25.027 304.511 24.8857C304.862 24.7399 305.137 24.5394 305.338 24.2842C305.538 24.029 305.639 23.735 305.639 23.4023V23.3955C305.639 22.9854 305.488 22.6413 305.188 22.3633C304.887 22.0807 304.397 21.8643 303.718 21.7139L302.624 21.4746C301.635 21.2559 300.915 20.9186 300.464 20.4629C300.017 20.0026 299.794 19.4147 299.794 18.6992V18.6924C299.799 18.1455 299.947 17.6624 300.238 17.2432C300.535 16.8239 300.942 16.4958 301.462 16.2588C301.986 16.0218 302.588 15.9033 303.267 15.9033C303.923 15.9033 304.504 16.0218 305.01 16.2588C305.516 16.4912 305.917 16.8057 306.213 17.2021C306.514 17.5986 306.68 18.043 306.712 18.5352L306.719 18.6309H305.488L305.475 18.542C305.429 18.2503 305.311 17.9928 305.119 17.7695C304.928 17.5417 304.673 17.3617 304.354 17.2295C304.035 17.0973 303.661 17.0335 303.232 17.0381C302.822 17.0381 302.453 17.1019 302.125 17.2295C301.797 17.3571 301.535 17.5417 301.339 17.7832C301.147 18.0202 301.052 18.3118 301.052 18.6582V18.665C301.052 19.057 301.198 19.3874 301.489 19.6562C301.781 19.9251 302.262 20.1325 302.932 20.2783L304.025 20.5244C305.055 20.7523 305.791 21.0827 306.233 21.5156C306.675 21.9486 306.897 22.5205 306.897 23.2314V23.2383C306.897 23.8535 306.746 24.3844 306.445 24.8311C306.145 25.2777 305.721 25.624 305.174 25.8701C304.627 26.1117 303.987 26.2324 303.253 26.2324ZM308.947 26V16.1357H312.331C313.306 16.1357 314.14 16.3317 314.833 16.7236C315.53 17.111 316.064 17.6715 316.433 18.4053C316.802 19.139 316.986 20.0231 316.986 21.0576V21.0713C316.986 22.1058 316.802 22.9922 316.433 23.7305C316.064 24.4642 315.533 25.027 314.84 25.4189C314.147 25.8063 313.311 26 312.331 26H308.947ZM310.178 24.8926H312.249C312.983 24.8926 313.609 24.7422 314.129 24.4414C314.648 24.1406 315.045 23.7054 315.318 23.1357C315.592 22.5661 315.729 21.8825 315.729 21.085V21.0713C315.729 20.2692 315.59 19.5833 315.312 19.0137C315.038 18.4395 314.642 18.002 314.122 17.7012C313.603 17.3958 312.978 17.2432 312.249 17.2432H310.178V24.8926ZM320.213 22.7051L320.145 20.9277H320.459L324.779 16.1357H326.324L322.243 20.5449L321.669 21.0986L320.213 22.7051ZM319.119 26V16.1357H320.35V26H319.119ZM325.094 26L321.409 21.085L322.257 20.2305L326.687 26H325.094ZM327.562 26L331.198 16.1357H332.142V17.7285H331.752L328.854 26H327.562ZM329.209 23.1768L329.592 22.1309H334.049L334.432 23.1768H329.209ZM334.76 26L331.861 17.7285V16.1357H332.415L336.052 26H334.76ZM339.894 26.2324C339.324 26.2324 338.839 26.1253 338.438 25.9111C338.036 25.6924 337.724 25.3962 337.501 25.0225C337.282 24.6488 337.155 24.2272 337.118 23.7578L337.111 23.6621H338.342L338.349 23.7305C338.376 23.9766 338.449 24.2044 338.567 24.4141C338.686 24.6191 338.855 24.7855 339.073 24.9131C339.292 25.0361 339.563 25.0977 339.887 25.0977C340.434 25.0977 340.851 24.9404 341.138 24.626C341.425 24.307 341.568 23.8467 341.568 23.2451V16.1357H342.799V23.2588C342.799 24.193 342.541 24.9222 342.026 25.4463C341.516 25.9704 340.805 26.2324 339.894 26.2324ZM348.548 26.2324C347.828 26.2324 347.199 26.1162 346.661 25.8838C346.128 25.6468 345.704 25.3232 345.39 24.9131C345.08 24.4984 344.9 24.0244 344.85 23.4912L344.843 23.416H346.073L346.08 23.4912C346.112 23.8193 346.237 24.1042 346.456 24.3457C346.679 24.5827 346.976 24.7673 347.345 24.8994C347.718 25.0316 348.142 25.0977 348.616 25.0977C349.063 25.0977 349.459 25.027 349.806 24.8857C350.157 24.7399 350.432 24.5394 350.633 24.2842C350.833 24.029 350.934 23.735 350.934 23.4023V23.3955C350.934 22.9854 350.783 22.6413 350.482 22.3633C350.182 22.0807 349.692 21.8643 349.013 21.7139L347.919 21.4746C346.93 21.2559 346.21 20.9186 345.759 20.4629C345.312 20.0026 345.089 19.4147 345.089 18.6992V18.6924C345.093 18.1455 345.242 17.6624 345.533 17.2432C345.829 16.8239 346.237 16.4958 346.757 16.2588C347.281 16.0218 347.883 15.9033 348.562 15.9033C349.218 15.9033 349.799 16.0218 350.305 16.2588C350.811 16.4912 351.212 16.8057 351.508 17.2021C351.809 17.5986 351.975 18.043 352.007 18.5352L352.014 18.6309H350.783L350.77 18.542C350.724 18.2503 350.605 17.9928 350.414 17.7695C350.223 17.5417 349.967 17.3617 349.648 17.2295C349.329 17.0973 348.956 17.0335 348.527 17.0381C348.117 17.0381 347.748 17.1019 347.42 17.2295C347.092 17.3571 346.83 17.5417 346.634 17.7832C346.442 18.0202 346.347 18.3118 346.347 18.6582V18.665C346.347 19.057 346.493 19.3874 346.784 19.6562C347.076 19.9251 347.557 20.1325 348.227 20.2783L349.32 20.5244C350.35 20.7523 351.086 21.0827 351.528 21.5156C351.97 21.9486 352.191 22.5205 352.191 23.2314V23.2383C352.191 23.8535 352.041 24.3844 351.74 24.8311C351.439 25.2777 351.016 25.624 350.469 25.8701C349.922 26.1117 349.282 26.2324 348.548 26.2324ZM358.59 26V23.9561H353.784V22.835C354.053 22.3883 354.327 21.9372 354.605 21.4814C354.883 21.0212 355.163 20.5632 355.445 20.1074C355.732 19.6471 356.02 19.1914 356.307 18.7402C356.594 18.2891 356.879 17.8447 357.161 17.4072C357.448 16.9697 357.731 16.5459 358.009 16.1357H359.793V22.8555H361.194V23.9561H359.793V26H358.59ZM355.042 22.8623H358.597V17.2773H358.515C358.291 17.61 358.064 17.9564 357.831 18.3164C357.599 18.6719 357.362 19.0365 357.12 19.4102C356.883 19.7839 356.646 20.1598 356.409 20.5381C356.172 20.9163 355.938 21.2946 355.705 21.6729C355.477 22.0465 355.256 22.4157 355.042 22.7803V22.8623ZM363.095 26V25.1523L366.431 21.543C366.85 21.0872 367.178 20.7113 367.415 20.415C367.652 20.1143 367.818 19.8431 367.914 19.6016C368.01 19.36 368.058 19.0957 368.058 18.8086V18.7949C368.058 18.4486 367.982 18.1387 367.832 17.8652C367.682 17.5918 367.467 17.3753 367.189 17.2158C366.911 17.0563 366.579 16.9766 366.191 16.9766C365.8 16.9766 365.455 17.0586 365.159 17.2227C364.863 17.3822 364.633 17.6077 364.469 17.8994C364.305 18.1865 364.223 18.5238 364.223 18.9111L364.216 18.9248L363.04 18.918L363.026 18.9111C363.031 18.3278 363.172 17.8105 363.45 17.3594C363.728 16.9036 364.111 16.5482 364.599 16.293C365.086 16.0332 365.645 15.9033 366.273 15.9033C366.848 15.9033 367.365 16.0241 367.825 16.2656C368.286 16.5026 368.648 16.8285 368.912 17.2432C369.181 17.6579 369.315 18.1318 369.315 18.665V18.6787C369.315 19.0524 369.249 19.4124 369.117 19.7588C368.99 20.1051 368.762 20.4902 368.434 20.9141C368.105 21.3333 367.643 21.8506 367.046 22.4658L364.496 25.0977L364.804 24.5303V25.0977L364.503 24.8926H369.48V26H363.095Z" fill="black"/>
<rect x="379.5" y="17" width="8" height="11" rx="1.5" stroke="black"/>
<path fill-rule="evenodd" clip-rule="evenodd" d="M383.25 15.5H388C388.552 15.5 389 15.9477 389 16.5V24.75C389 25.3023 388.552 25.75 388 25.75H387.667V26.5C387.667 26.5847 387.661 26.6681 387.651 26.75H388C389.105 26.75 390 25.8546 390 24.75V16.5C390 15.3954 389.105 14.5 388 14.5H383.25C382.23 14.5 381.388 15.2634 381.265 16.25H382.282C382.393 15.8187 382.784 15.5 383.25 15.5Z" fill="black"/>
<line x1="45.5" y1="17" x2="45.5" y2="26" stroke="#FF4E4E"/>
<line x1="45" y1="21" x2="49.5" y2="21" stroke="#FF4E4E"/>
<path d="M50.7183 23.5V20.6729H50.6743L49.8101 21.2734V20.6094L50.7207 19.9771H51.4556V23.5H50.7183ZM53.8188 23.5903C53.6138 23.5903 53.4233 23.5537 53.2476 23.4805C53.0718 23.4072 52.9172 23.2957 52.7837 23.146C52.6519 22.9963 52.5485 22.8075 52.4736 22.5796C52.4004 22.3517 52.3638 22.0824 52.3638 21.7715V21.7666C52.3638 21.3743 52.4224 21.0382 52.5396 20.7583C52.6584 20.4767 52.8268 20.2611 53.0449 20.1113C53.263 19.9616 53.5218 19.8867 53.8213 19.8867C54.0492 19.8867 54.2542 19.9282 54.4365 20.0112C54.6188 20.0942 54.7686 20.2074 54.8857 20.3506C55.0046 20.4938 55.0819 20.6574 55.1177 20.8413L55.1226 20.8657H54.4023L54.3926 20.8438C54.3649 20.7689 54.3242 20.7046 54.2705 20.6509C54.2184 20.5955 54.1549 20.5524 54.0801 20.5215C54.0052 20.4906 53.9198 20.4751 53.8237 20.4751C53.6545 20.4751 53.5153 20.5256 53.4062 20.6265C53.2972 20.7274 53.215 20.8641 53.1597 21.0366C53.106 21.2091 53.0742 21.402 53.0645 21.6152C53.0628 21.6396 53.062 21.6641 53.062 21.6885C53.062 21.7113 53.062 21.7357 53.062 21.7617L53.1719 22.3501C53.1719 22.4738 53.2004 22.5853 53.2573 22.6846C53.3143 22.7839 53.3916 22.8628 53.4893 22.9214C53.5869 22.9784 53.6951 23.0068 53.814 23.0068C53.9328 23.0068 54.0402 22.9784 54.1362 22.9214C54.2339 22.8644 54.3112 22.7879 54.3682 22.6919C54.4268 22.5942 54.4561 22.4852 54.4561 22.3647V22.3599C54.4561 22.2362 54.4284 22.1271 54.373 22.0327C54.3177 21.9367 54.242 21.861 54.146 21.8057C54.0516 21.7503 53.9425 21.7227 53.8188 21.7227C53.6984 21.7227 53.5894 21.7495 53.4917 21.8032C53.394 21.8569 53.3159 21.931 53.2573 22.0254C53.2004 22.1182 53.1719 22.2256 53.1719 22.3477V22.3501H53.0254V21.6958H53.1108C53.1548 21.6047 53.2166 21.52 53.2964 21.4419C53.3761 21.3638 53.4762 21.3011 53.5967 21.2539C53.7171 21.2051 53.8579 21.1807 54.019 21.1807C54.2485 21.1807 54.4495 21.2303 54.6221 21.3296C54.7946 21.4289 54.9289 21.5656 55.0249 21.7397C55.1209 21.9139 55.1689 22.1125 55.1689 22.3354V22.3403C55.1689 22.5796 55.1112 22.7936 54.9956 22.9824C54.8817 23.1712 54.723 23.3201 54.5195 23.4292C54.3177 23.5366 54.0841 23.5903 53.8188 23.5903Z" fill="black"/>
<line x1="55.5" y1="21" x2="60" y2="21" stroke="#FF4E4E"/>
<line x1="60.5" y1="17" x2="60.5" y2="26" stroke="#FF4E4E"/>
<line x1="371.5" y1="17" x2="371.5" y2="26" stroke="#FF4E4E"/>
<line x1="371" y1="21" x2="372.5" y2="21" stroke="#FF4E4E"/>
<path d="M374.5 23.5781C374.217 23.5781 373.968 23.535 373.753 23.4487C373.538 23.3608 373.37 23.2396 373.25 23.085C373.13 22.9287 373.069 22.7489 373.069 22.5454V22.5405C373.069 22.3875 373.104 22.2492 373.174 22.1255C373.246 22.0018 373.344 21.8993 373.467 21.8179C373.591 21.7349 373.733 21.6779 373.892 21.647V21.6323C373.685 21.5819 373.518 21.4875 373.389 21.3491C373.262 21.2091 373.199 21.0431 373.199 20.8511V20.8462C373.199 20.6639 373.254 20.502 373.365 20.3604C373.475 20.2171 373.628 20.1048 373.824 20.0234C374.019 19.9404 374.244 19.8989 374.5 19.8989C374.756 19.8989 374.981 19.9404 375.176 20.0234C375.372 20.1048 375.525 20.2171 375.635 20.3604C375.746 20.502 375.801 20.6639 375.801 20.8462V20.8511C375.801 21.0431 375.737 21.2091 375.608 21.3491C375.48 21.4875 375.313 21.5819 375.108 21.6323V21.647C375.267 21.6779 375.409 21.7349 375.533 21.8179C375.656 21.8993 375.753 22.0018 375.823 22.1255C375.895 22.2492 375.931 22.3875 375.931 22.5405V22.5454C375.931 22.7489 375.87 22.9287 375.75 23.085C375.63 23.2396 375.461 23.3608 375.245 23.4487C375.03 23.535 374.782 23.5781 374.5 23.5781ZM374.5 23.041C374.629 23.041 374.743 23.0182 374.842 22.9727C374.941 22.9255 375.018 22.8612 375.074 22.7798C375.131 22.6968 375.159 22.6024 375.159 22.4966V22.4917C375.159 22.3859 375.132 22.2923 375.076 22.2109C375.021 22.1279 374.944 22.0628 374.844 22.0156C374.745 21.9684 374.63 21.9448 374.5 21.9448C374.37 21.9448 374.255 21.9684 374.156 22.0156C374.056 22.0628 373.978 22.1279 373.921 22.2109C373.866 22.2923 373.838 22.3859 373.838 22.4917V22.4966C373.838 22.6024 373.867 22.6968 373.924 22.7798C373.981 22.8612 374.059 22.9255 374.158 22.9727C374.257 23.0182 374.371 23.041 374.5 23.041ZM374.5 21.4102C374.612 21.4102 374.712 21.3898 374.798 21.3491C374.884 21.3068 374.951 21.249 374.998 21.1758C375.047 21.1025 375.071 21.0179 375.071 20.9219V20.917C375.071 20.821 375.047 20.7363 374.998 20.6631C374.949 20.5898 374.882 20.5329 374.795 20.4922C374.711 20.4515 374.612 20.4312 374.5 20.4312C374.388 20.4312 374.288 20.4515 374.202 20.4922C374.116 20.5329 374.048 20.5898 374 20.6631C373.951 20.7363 373.926 20.821 373.926 20.917V20.9219C373.926 21.0179 373.951 21.1025 374 21.1758C374.048 21.249 374.116 21.3068 374.202 21.3491C374.288 21.3898 374.388 21.4102 374.5 21.4102Z" fill="black"/>
<line x1="376.5" y1="21" x2="378" y2="21" stroke="#FF4E4E"/>
<line x1="378.5" y1="17" x2="378.5" y2="26" stroke="#FF4E4E"/>
<line x1="390.5" y1="17" x2="390.5" y2="26" stroke="#FF4E4E"/>
<line x1="390" y1="21" x2="394.5" y2="21" stroke="#FF4E4E"/>
<path d="M395.83 23.5V20.6729H395.786L394.922 21.2734V20.6094L395.833 19.9771H396.567V23.5H395.83ZM397.527 23.5V23.0044L398.662 21.8838C398.828 21.7243 398.957 21.5933 399.048 21.4907C399.139 21.3866 399.202 21.2962 399.238 21.2197C399.274 21.1416 399.292 21.061 399.292 20.978V20.9707C399.292 20.8698 399.27 20.7811 399.226 20.7046C399.184 20.6281 399.122 20.5687 399.041 20.5264C398.959 20.4824 398.862 20.4604 398.75 20.4604C398.636 20.4604 398.535 20.4849 398.447 20.5337C398.359 20.5809 398.291 20.6468 398.242 20.7314C398.193 20.8145 398.169 20.9121 398.169 21.0244V21.0366H397.488L397.485 21.0244C397.485 20.7998 397.54 20.6021 397.649 20.4312C397.76 20.2603 397.912 20.1268 398.105 20.0308C398.301 19.9347 398.527 19.8867 398.784 19.8867C399.027 19.8867 399.24 19.9299 399.424 20.0161C399.609 20.1024 399.754 20.222 399.858 20.375C399.964 20.528 400.017 20.7062 400.017 20.9097V20.917C400.017 21.0505 399.991 21.1815 399.939 21.3101C399.887 21.437 399.799 21.5745 399.675 21.7227C399.552 21.8708 399.382 22.0441 399.167 22.2427L398.318 23.0361L398.516 22.7139V23.0361L398.318 22.9067H400.068V23.5H397.527Z" fill="black"/>
<line x1="400.5" y1="21" x2="405" y2="21" stroke="#FF4E4E"/>
<line x1="405.5" y1="17" x2="405.5" y2="26" stroke="#FF4E4E"/>
<rect x="-0.5" y="0.5" width="72" height="16" transform="matrix(-1 0 0 1 133 13)" stroke="#00A3FF"/>
<rect x="0.5" y="-0.5" width="88" height="16" transform="matrix(1 0 0 -1 282 29)" stroke="#00A3FF"/>
<line x1="124" y1="1.5" x2="133" y2="1.5" stroke="#FF4E4E"/>
<line x1="128" y1="4.5" x2="128" y2="2" stroke="#FF4E4E"/>
<path d="M126.83 9.5V6.67285H126.786L125.922 7.27344V6.60938L126.833 5.97705H127.567V9.5H126.83ZM128.527 9.5V9.00439L129.662 7.88379C129.828 7.72428 129.957 7.59326 130.048 7.49072C130.139 7.38656 130.202 7.29622 130.238 7.21973C130.274 7.1416 130.292 7.06104 130.292 6.97803V6.9707C130.292 6.86979 130.27 6.78109 130.226 6.70459C130.184 6.62809 130.122 6.56868 130.041 6.52637C129.959 6.48242 129.862 6.46045 129.75 6.46045C129.636 6.46045 129.535 6.48486 129.447 6.53369C129.359 6.58089 129.291 6.64681 129.242 6.73145C129.193 6.81445 129.169 6.91211 129.169 7.02441V7.03662H128.488L128.485 7.02441C128.485 6.7998 128.54 6.60205 128.649 6.43115C128.76 6.26025 128.912 6.12679 129.105 6.03076C129.301 5.93473 129.527 5.88672 129.784 5.88672C130.027 5.88672 130.24 5.92985 130.424 6.01611C130.609 6.10238 130.754 6.22201 130.858 6.375C130.964 6.52799 131.017 6.70622 131.017 6.90967V6.91699C131.017 7.05046 130.991 7.18148 130.939 7.31006C130.887 7.43701 130.799 7.57454 130.675 7.72266C130.552 7.87077 130.382 8.04411 130.167 8.24268L129.318 9.03613L129.516 8.71387V9.03613L129.318 8.90674H131.068V9.5H128.527Z" fill="black"/>
<line x1="128" y1="13" x2="128" y2="10.5" stroke="#FF4E4E"/>
<line x1="124" y1="12.5" x2="133" y2="12.5" stroke="#FF4E4E"/>
<line x1="322" y1="1.5" x2="331" y2="1.5" stroke="#FF4E4E"/>
<line x1="326" y1="4.5" x2="326" y2="2" stroke="#FF4E4E"/>
<path d="M324.83 9.5V6.67285H324.786L323.922 7.27344V6.60938L324.833 5.97705H325.567V9.5H324.83ZM326.527 9.5V9.00439L327.662 7.88379C327.828 7.72428 327.957 7.59326 328.048 7.49072C328.139 7.38656 328.202 7.29622 328.238 7.21973C328.274 7.1416 328.292 7.06104 328.292 6.97803V6.9707C328.292 6.86979 328.27 6.78109 328.226 6.70459C328.184 6.62809 328.122 6.56868 328.041 6.52637C327.959 6.48242 327.862 6.46045 327.75 6.46045C327.636 6.46045 327.535 6.48486 327.447 6.53369C327.359 6.58089 327.291 6.64681 327.242 6.73145C327.193 6.81445 327.169 6.91211 327.169 7.02441V7.03662H326.488L326.485 7.02441C326.485 6.7998 326.54 6.60205 326.649 6.43115C326.76 6.26025 326.912 6.12679 327.105 6.03076C327.301 5.93473 327.527 5.88672 327.784 5.88672C328.027 5.88672 328.24 5.92985 328.424 6.01611C328.609 6.10238 328.754 6.22201 328.858 6.375C328.964 6.52799 329.017 6.70622 329.017 6.90967V6.91699C329.017 7.05046 328.991 7.18148 328.939 7.31006C328.887 7.43701 328.799 7.57454 328.675 7.72266C328.552 7.87077 328.382 8.04411 328.167 8.24268L327.318 9.03613L327.516 8.71387V9.03613L327.318 8.90674H329.068V9.5H326.527Z" fill="black"/>
<line x1="326" y1="13" x2="326" y2="10.5" stroke="#FF4E4E"/>
<line x1="322" y1="12.5" x2="331" y2="12.5" stroke="#FF4E4E"/>
<line x1="381" y1="1.5" x2="390" y2="1.5" stroke="#FF4E4E"/>
<line x1="385" y1="4.5" x2="385" y2="2" stroke="#FF4E4E"/>
<path d="M384.157 9.07031V8.42822H386.843V9.07031H384.157ZM384.157 7.7251V7.08301H386.843V7.7251H384.157Z" fill="black"/>
<line x1="385" y1="13" x2="385" y2="10.5" stroke="#FF4E4E"/>
<line x1="381" y1="12.5" x2="390" y2="12.5" stroke="#FF4E4E"/>
<line x1="124" y1="30.5" x2="133" y2="30.5" stroke="#FF4E4E"/>
<line x1="128" y1="33.5" x2="128" y2="31" stroke="#FF4E4E"/>
<path d="M126.83 38.5V35.6729H126.786L125.922 36.2734V35.6094L126.833 34.9771H127.567V38.5H126.83ZM128.527 38.5V38.0044L129.662 36.8838C129.828 36.7243 129.957 36.5933 130.048 36.4907C130.139 36.3866 130.202 36.2962 130.238 36.2197C130.274 36.1416 130.292 36.061 130.292 35.978V35.9707C130.292 35.8698 130.27 35.7811 130.226 35.7046C130.184 35.6281 130.122 35.5687 130.041 35.5264C129.959 35.4824 129.862 35.4604 129.75 35.4604C129.636 35.4604 129.535 35.4849 129.447 35.5337C129.359 35.5809 129.291 35.6468 129.242 35.7314C129.193 35.8145 129.169 35.9121 129.169 36.0244V36.0366H128.488L128.485 36.0244C128.485 35.7998 128.54 35.6021 128.649 35.4312C128.76 35.2603 128.912 35.1268 129.105 35.0308C129.301 34.9347 129.527 34.8867 129.784 34.8867C130.027 34.8867 130.24 34.9299 130.424 35.0161C130.609 35.1024 130.754 35.222 130.858 35.375C130.964 35.528 131.017 35.7062 131.017 35.9097V35.917C131.017 36.0505 130.991 36.1815 130.939 36.3101C130.887 36.437 130.799 36.5745 130.675 36.7227C130.552 36.8708 130.382 37.0441 130.167 37.2427L129.318 38.0361L129.516 37.7139V38.0361L129.318 37.9067H131.068V38.5H128.527Z" fill="black"/>
<line x1="128" y1="42" x2="128" y2="39.5" stroke="#FF4E4E"/>
<line x1="124" y1="41.5" x2="133" y2="41.5" stroke="#FF4E4E"/>
<line x1="322" y1="30.5" x2="331" y2="30.5" stroke="#FF4E4E"/>
<line x1="326" y1="33.5" x2="326" y2="31" stroke="#FF4E4E"/>
<path d="M324.83 38.5V35.6729H324.786L323.922 36.2734V35.6094L324.833 34.9771H325.567V38.5H324.83ZM326.527 38.5V38.0044L327.662 36.8838C327.828 36.7243 327.957 36.5933 328.048 36.4907C328.139 36.3866 328.202 36.2962 328.238 36.2197C328.274 36.1416 328.292 36.061 328.292 35.978V35.9707C328.292 35.8698 328.27 35.7811 328.226 35.7046C328.184 35.6281 328.122 35.5687 328.041 35.5264C327.959 35.4824 327.862 35.4604 327.75 35.4604C327.636 35.4604 327.535 35.4849 327.447 35.5337C327.359 35.5809 327.291 35.6468 327.242 35.7314C327.193 35.8145 327.169 35.9121 327.169 36.0244V36.0366H326.488L326.485 36.0244C326.485 35.7998 326.54 35.6021 326.649 35.4312C326.76 35.2603 326.912 35.1268 327.105 35.0308C327.301 34.9347 327.527 34.8867 327.784 34.8867C328.027 34.8867 328.24 34.9299 328.424 35.0161C328.609 35.1024 328.754 35.222 328.858 35.375C328.964 35.528 329.017 35.7062 329.017 35.9097V35.917C329.017 36.0505 328.991 36.1815 328.939 36.3101C328.887 36.437 328.799 36.5745 328.675 36.7227C328.552 36.8708 328.382 37.0441 328.167 37.2427L327.318 38.0361L327.516 37.7139V38.0361L327.318 37.9067H329.068V38.5H326.527Z" fill="black"/>
<line x1="326" y1="42" x2="326" y2="39.5" stroke="#FF4E4E"/>
<line x1="322" y1="41.5" x2="331" y2="41.5" stroke="#FF4E4E"/>
<line x1="381" y1="30.5" x2="390" y2="30.5" stroke="#FF4E4E"/>
<line x1="385" y1="33.5" x2="385" y2="31" stroke="#FF4E4E"/>
<path d="M384.157 38.0703V37.4282H386.843V38.0703H384.157ZM384.157 36.7251V36.083H386.843V36.7251H384.157Z" fill="black"/>
<line x1="381" y1="41.5" x2="390" y2="41.5" stroke="#FF4E4E"/>
<path d="M45 13C45 6.37258 50.3726 1 57 1" stroke="#FF4E4E"/>
<path d="M46.2183 12V9.17285H46.1743L45.3101 9.77344V9.10938L46.2207 8.47705H46.9556V12H46.2183ZM47.915 12V11.5044L49.0503 10.3838C49.2163 10.2243 49.3449 10.0933 49.436 9.99072C49.5272 9.88656 49.5907 9.79622 49.6265 9.71973C49.6623 9.6416 49.6802 9.56104 49.6802 9.47803V9.4707C49.6802 9.36979 49.6582 9.28109 49.6143 9.20459C49.5719 9.12809 49.5101 9.06868 49.4287 9.02637C49.3473 8.98242 49.2505 8.96045 49.1382 8.96045C49.0243 8.96045 48.9233 8.98486 48.8354 9.03369C48.7476 9.08089 48.6792 9.14681 48.6304 9.23145C48.5815 9.31445 48.5571 9.41211 48.5571 9.52441V9.53662H47.876L47.8735 9.52441C47.8735 9.2998 47.9281 9.10205 48.0371 8.93115C48.1478 8.76025 48.3 8.62679 48.4937 8.53076C48.689 8.43473 48.9152 8.38672 49.1724 8.38672C49.4149 8.38672 49.6281 8.42985 49.812 8.51611C49.9976 8.60238 50.1424 8.72201 50.2466 8.875C50.3524 9.02799 50.4053 9.20622 50.4053 9.40967V9.41699C50.4053 9.55046 50.3792 9.68148 50.3271 9.81006C50.2751 9.93701 50.1872 10.0745 50.0635 10.2227C49.9398 10.3708 49.7705 10.5441 49.5557 10.7427L48.7061 11.5361L48.9038 11.2139V11.5361L48.7061 11.4067H50.4565V12H47.915Z" fill="black"/>
<line x1="381" y1="13.5" x2="390" y2="13.5" stroke="#FF4E4E"/>
<line x1="385" y1="19" x2="385" y2="14" stroke="#FF4E4E"/>
<mask id="path-56-outside-1_456_742" maskUnits="userSpaceOnUse" x="381.5" y="19" width="8" height="6" fill="black">
<rect fill="white" x="381.5" y="19" width="8" height="6"/>
<path d="M383.928 24V21.1729H383.884L383.02 21.7734V21.1094L383.93 20.4771H384.665V24H383.928ZM385.781 24L387.282 21.1045V21.063H385.505V20.4746H388.024V21.0703L386.552 24H385.781Z"/>
</mask>
<path d="M383.928 24V21.1729H383.884L383.02 21.7734V21.1094L383.93 20.4771H384.665V24H383.928ZM385.781 24L387.282 21.1045V21.063H385.505V20.4746H388.024V21.0703L386.552 24H385.781Z" fill="white"/>
<path d="M383.928 24H382.928V25H383.928V24ZM383.928 21.1729H384.928V20.1729H383.928V21.1729ZM383.884 21.1729V20.1729H383.57L383.313 20.3517L383.884 21.1729ZM383.02 21.7734H382.02V23.6861L383.59 22.5946L383.02 21.7734ZM383.02 21.1094L382.449 20.288L382.02 20.5863V21.1094H383.02ZM383.93 20.4771V19.4771H383.617L383.36 19.6557L383.93 20.4771ZM384.665 20.4771H385.665V19.4771H384.665V20.4771ZM384.665 24V25H385.665V24H384.665ZM384.928 24V21.1729H382.928V24H384.928ZM383.928 20.1729H383.884V22.1729H383.928V20.1729ZM383.313 20.3517L382.449 20.9522L383.59 22.5946L384.454 21.994L383.313 20.3517ZM384.02 21.7734V21.1094H382.02V21.7734H384.02ZM383.59 21.9308L384.501 21.2984L383.36 19.6557L382.449 20.288L383.59 21.9308ZM383.93 21.4771H384.665V19.4771H383.93V21.4771ZM383.665 20.4771V24H385.665V20.4771H383.665ZM384.665 23H383.928V25H384.665V23ZM385.781 24L384.893 23.5397L384.136 25H385.781V24ZM387.282 21.1045L388.17 21.5648L388.282 21.3483V21.1045H387.282ZM387.282 21.063H388.282V20.063H387.282V21.063ZM385.505 21.063H384.505V22.063H385.505V21.063ZM385.505 20.4746V19.4746H384.505V20.4746H385.505ZM388.024 20.4746H389.024V19.4746H388.024V20.4746ZM388.024 21.0703L388.918 21.5193L389.024 21.3074V21.0703H388.024ZM386.552 24V25H387.169L387.446 24.449L386.552 24ZM386.669 24.4603L388.17 21.5648L386.394 20.6442L384.893 23.5397L386.669 24.4603ZM388.282 21.1045V21.063H386.282V21.1045H388.282ZM387.282 20.063H385.505V22.063H387.282V20.063ZM386.505 21.063V20.4746H384.505V21.063H386.505ZM385.505 21.4746H388.024V19.4746H385.505V21.4746ZM387.024 20.4746V21.0703H389.024V20.4746H387.024ZM387.131 20.6213L385.659 23.551L387.446 24.449L388.918 21.5193L387.131 20.6213ZM386.552 23H385.781V25H386.552V23Z" fill="black" mask="url(#path-56-outside-1_456_742)"/>
<line x1="385" y1="30" x2="385" y2="25" stroke="#FF4E4E"/>
<line x1="381" y1="29.5" x2="390" y2="29.5" stroke="#FF4E4E"/>
<line x1="381" y1="13.5" x2="390" y2="13.5" stroke="#FF4E4E"/>
<line x1="385" y1="19" x2="385" y2="14" stroke="#FF4E4E"/>
<mask id="path-62-outside-2_456_742" maskUnits="userSpaceOnUse" x="381.5" y="19" width="8" height="7" fill="black">
<rect fill="white" x="381.5" y="19" width="8" height="7"/>
<path d="M383.779 24V21.1729H383.735L382.871 21.7734V21.1094L383.781 20.4771H384.516V24H383.779ZM386.811 24.0903C386.56 24.0903 386.341 24.0448 386.152 23.9536C385.963 23.8625 385.813 23.7388 385.703 23.5825C385.594 23.4246 385.532 23.248 385.517 23.0527L385.515 23.0186H386.184L386.188 23.0356C386.206 23.1219 386.243 23.2008 386.298 23.2725C386.355 23.3424 386.428 23.3986 386.516 23.4409C386.604 23.4816 386.703 23.502 386.813 23.502C386.94 23.502 387.052 23.4743 387.148 23.4189C387.244 23.3636 387.319 23.2879 387.373 23.1919C387.428 23.0942 387.456 22.9827 387.456 22.8574V22.8525C387.456 22.7272 387.428 22.6165 387.373 22.5205C387.319 22.4245 387.244 22.3496 387.148 22.2959C387.052 22.2422 386.941 22.2153 386.816 22.2153C386.728 22.2153 386.647 22.2284 386.572 22.2544C386.497 22.2788 386.429 22.3162 386.369 22.3667C386.337 22.3927 386.306 22.4229 386.276 22.457C386.249 22.4896 386.225 22.5246 386.206 22.562H385.573L385.737 20.4771H387.939V21.063H386.311L386.223 22.0664H386.267C386.337 21.9476 386.437 21.854 386.567 21.7856C386.699 21.7173 386.849 21.6831 387.019 21.6831C387.238 21.6831 387.433 21.7327 387.602 21.832C387.773 21.9313 387.906 22.068 388.002 22.2422C388.1 22.4147 388.149 22.6133 388.149 22.8379V22.8428C388.149 23.0902 388.092 23.3075 387.978 23.4946C387.866 23.6818 387.709 23.8283 387.507 23.9341C387.307 24.0382 387.075 24.0903 386.811 24.0903Z"/>
</mask>
<path d="M383.779 24V21.1729H383.735L382.871 21.7734V21.1094L383.781 20.4771H384.516V24H383.779ZM386.811 24.0903C386.56 24.0903 386.341 24.0448 386.152 23.9536C385.963 23.8625 385.813 23.7388 385.703 23.5825C385.594 23.4246 385.532 23.248 385.517 23.0527L385.515 23.0186H386.184L386.188 23.0356C386.206 23.1219 386.243 23.2008 386.298 23.2725C386.355 23.3424 386.428 23.3986 386.516 23.4409C386.604 23.4816 386.703 23.502 386.813 23.502C386.94 23.502 387.052 23.4743 387.148 23.4189C387.244 23.3636 387.319 23.2879 387.373 23.1919C387.428 23.0942 387.456 22.9827 387.456 22.8574V22.8525C387.456 22.7272 387.428 22.6165 387.373 22.5205C387.319 22.4245 387.244 22.3496 387.148 22.2959C387.052 22.2422 386.941 22.2153 386.816 22.2153C386.728 22.2153 386.647 22.2284 386.572 22.2544C386.497 22.2788 386.429 22.3162 386.369 22.3667C386.337 22.3927 386.306 22.4229 386.276 22.457C386.249 22.4896 386.225 22.5246 386.206 22.562H385.573L385.737 20.4771H387.939V21.063H386.311L386.223 22.0664H386.267C386.337 21.9476 386.437 21.854 386.567 21.7856C386.699 21.7173 386.849 21.6831 387.019 21.6831C387.238 21.6831 387.433 21.7327 387.602 21.832C387.773 21.9313 387.906 22.068 388.002 22.2422C388.1 22.4147 388.149 22.6133 388.149 22.8379V22.8428C388.149 23.0902 388.092 23.3075 387.978 23.4946C387.866 23.6818 387.709 23.8283 387.507 23.9341C387.307 24.0382 387.075 24.0903 386.811 24.0903Z" fill="white"/>
<path d="M383.779 24H382.779V25H383.779V24ZM383.779 21.1729H384.779V20.1729H383.779V21.1729ZM383.735 21.1729V20.1729H383.422L383.164 20.3517L383.735 21.1729ZM382.871 21.7734H381.871V23.6861L383.441 22.5946L382.871 21.7734ZM382.871 21.1094L382.3 20.288L381.871 20.5863V21.1094H382.871ZM383.781 20.4771V19.4771H383.468L383.211 19.6557L383.781 20.4771ZM384.516 20.4771H385.516V19.4771H384.516V20.4771ZM384.516 24V25H385.516V24H384.516ZM384.779 24V21.1729H382.779V24H384.779ZM383.779 20.1729H383.735V22.1729H383.779V20.1729ZM383.164 20.3517L382.3 20.9522L383.441 22.5946L384.306 21.994L383.164 20.3517ZM383.871 21.7734V21.1094H381.871V21.7734H383.871ZM383.441 21.9308L384.352 21.2984L383.211 19.6557L382.3 20.288L383.441 21.9308ZM383.781 21.4771H384.516V19.4771H383.781V21.4771ZM383.516 20.4771V24H385.516V20.4771H383.516ZM384.516 23H383.779V25H384.516V23ZM385.703 23.5825L384.88 24.1509L384.887 24.1605L385.703 23.5825ZM385.517 23.0527L384.52 23.124L384.52 23.1275L385.517 23.0527ZM385.515 23.0186V22.0186H384.441L384.517 23.0898L385.515 23.0186ZM386.184 23.0186L387.145 22.7438L386.938 22.0186H386.184V23.0186ZM386.188 23.0356L387.168 22.8324L387.16 22.7964L387.15 22.7609L386.188 23.0356ZM386.298 23.2725L385.507 23.8839L385.515 23.8939L385.523 23.9037L386.298 23.2725ZM386.516 23.4409L386.082 24.3419L386.089 24.3452L386.096 24.3484L386.516 23.4409ZM387.373 23.1919L386.503 22.6989L386.5 22.7037L387.373 23.1919ZM387.373 22.5205L386.5 23.0087L386.506 23.0198L387.373 22.5205ZM386.572 22.2544L386.882 23.2051L386.891 23.2021L386.9 23.1989L386.572 22.2544ZM386.369 22.3667L386.994 23.1476L387.003 23.1405L387.011 23.1332L386.369 22.3667ZM386.276 22.457L385.517 21.8062L385.514 21.8094L386.276 22.457ZM386.206 22.562V23.562H386.812L387.092 23.0246L386.206 22.562ZM385.573 22.562L384.576 22.4838L384.492 23.562H385.573V22.562ZM385.737 20.4771V19.4771H384.812L384.74 20.3988L385.737 20.4771ZM387.939 20.4771H388.939V19.4771H387.939V20.4771ZM387.939 21.063V22.063H388.939V21.063H387.939ZM386.311 21.063V20.063H385.394L385.314 20.9757L386.311 21.063ZM386.223 22.0664L385.226 21.9791L385.131 23.0664H386.223V22.0664ZM386.267 22.0664V23.0664H386.838L387.128 22.5739L386.267 22.0664ZM386.567 21.7856L386.107 20.8979L386.102 20.9002L386.567 21.7856ZM387.602 21.832L387.096 22.6946L387.1 22.6967L387.602 21.832ZM388.002 22.2422L387.127 22.7251L387.132 22.7348L388.002 22.2422ZM387.978 23.4946L387.124 22.9747L387.121 22.9801L387.978 23.4946ZM387.507 23.9341L387.968 24.8212L387.971 24.8198L387.507 23.9341ZM386.811 23.0903C386.682 23.0903 386.616 23.0672 386.587 23.0531L385.717 24.8542C386.065 25.0223 386.439 25.0903 386.811 25.0903V23.0903ZM386.587 23.0531C386.535 23.0283 386.522 23.0099 386.519 23.0045L384.887 24.1605C385.104 24.4676 385.391 24.6966 385.717 24.8542L386.587 23.0531ZM386.525 23.0142C386.52 23.0069 386.519 23.003 386.518 23.0011C386.518 22.9991 386.515 22.9925 386.514 22.9779L384.52 23.1275C384.548 23.4961 384.668 23.8437 384.88 24.1508L386.525 23.0142ZM386.515 22.9815L386.512 22.9473L384.517 23.0898L384.52 23.124L386.515 22.9815ZM385.515 24.0186H386.184V22.0186H385.515V24.0186ZM385.222 23.2933L385.227 23.3104L387.15 22.7609L387.145 22.7438L385.222 23.2933ZM385.209 23.2389C385.259 23.4778 385.362 23.6956 385.507 23.8839L387.09 22.661C387.124 22.7061 387.154 22.766 387.168 22.8324L385.209 23.2389ZM385.523 23.9037C385.68 24.0967 385.872 24.2411 386.082 24.3419L386.949 22.5399C386.983 22.5561 387.031 22.5882 387.074 22.6412L385.523 23.9037ZM386.096 24.3484C386.333 24.4582 386.578 24.502 386.813 24.502V22.502C386.827 22.502 386.874 22.505 386.936 22.5335L386.096 24.3484ZM386.813 24.502C387.09 24.502 387.378 24.4403 387.647 24.2854L386.649 22.5525C386.725 22.5083 386.791 22.502 386.813 22.502V24.502ZM387.647 24.2854C387.898 24.1406 388.103 23.9348 388.245 23.68L386.5 22.7037C386.515 22.6757 386.537 22.6458 386.565 22.6174C386.593 22.5891 386.622 22.5677 386.649 22.5525L387.647 24.2854ZM388.243 23.6849C388.393 23.42 388.456 23.135 388.456 22.8574H386.456C386.456 22.8462 386.457 22.824 386.464 22.7942C386.472 22.7638 386.484 22.731 386.503 22.6989L388.243 23.6849ZM388.456 22.8574V22.8525H386.456V22.8574H388.456ZM388.456 22.8525C388.456 22.5753 388.393 22.2881 388.239 22.0212L386.506 23.0198C386.486 22.9851 386.473 22.9501 386.465 22.9181C386.457 22.8867 386.456 22.8637 386.456 22.8525H388.456ZM388.245 22.0324C388.101 21.7751 387.893 21.5671 387.636 21.4231L386.66 23.1687C386.631 23.1524 386.599 23.1295 386.569 23.0994C386.539 23.0693 386.516 23.0377 386.5 23.0087L388.245 22.0324ZM387.636 21.4231C387.371 21.275 387.088 21.2153 386.816 21.2153V23.2153C386.794 23.2153 386.733 23.2094 386.66 23.1687L387.636 21.4231ZM386.816 21.2153C386.628 21.2153 386.435 21.2433 386.243 21.3099L386.9 23.1989C386.859 23.2134 386.828 23.2153 386.816 23.2153V21.2153ZM386.262 21.3037C386.066 21.3676 385.885 21.4675 385.727 21.6002L387.011 23.1332C386.973 23.165 386.928 23.19 386.882 23.2051L386.262 21.3037ZM385.744 21.5858C385.659 21.6539 385.584 21.7283 385.517 21.8062L387.036 23.1078C387.027 23.1174 387.014 23.1316 386.994 23.1476L385.744 21.5858ZM385.514 21.8094C385.439 21.8981 385.373 21.9951 385.319 22.0994L387.092 23.0246C387.077 23.0541 387.058 23.0811 387.038 23.1047L385.514 21.8094ZM386.206 21.562H385.573V23.562H386.206V21.562ZM386.57 22.6402L386.734 20.5553L384.74 20.3988L384.576 22.4838L386.57 22.6402ZM385.737 21.4771H387.939V19.4771H385.737V21.4771ZM386.939 20.4771V21.063H388.939V20.4771H386.939ZM387.939 20.063H386.311V22.063H387.939V20.063ZM385.314 20.9757L385.226 21.9791L387.219 22.1537L387.307 21.1502L385.314 20.9757ZM386.223 23.0664H386.267V21.0664H386.223V23.0664ZM387.128 22.5739C387.115 22.5965 387.097 22.6186 387.077 22.6376C387.057 22.6563 387.04 22.6666 387.032 22.671L386.102 20.9002C385.818 21.0492 385.576 21.2688 385.405 21.5589L387.128 22.5739ZM387.027 22.6734C387.021 22.6765 387.016 22.6789 387.011 22.6807C387.006 22.6825 387.002 22.6835 387 22.6839C386.996 22.6848 387.001 22.6831 387.019 22.6831V20.6831C386.712 20.6831 386.399 20.746 386.107 20.8979L387.027 22.6734ZM387.019 22.6831C387.053 22.6831 387.073 22.6869 387.082 22.6893C387.091 22.6915 387.094 22.6934 387.096 22.6946L388.108 20.9695C387.768 20.7698 387.394 20.6831 387.019 20.6831V22.6831ZM387.1 22.6967C387.11 22.7024 387.113 22.7062 387.115 22.7076C387.116 22.709 387.12 22.7135 387.127 22.725L388.878 21.7593C388.695 21.4275 388.433 21.1583 388.104 20.9674L387.1 22.6967ZM387.132 22.7348C387.134 22.738 387.149 22.7626 387.149 22.8379H389.149C389.149 22.464 389.066 22.0914 388.873 21.7496L387.132 22.7348ZM387.149 22.8379V22.8428H389.149V22.8379H387.149ZM387.149 22.8428C387.149 22.931 387.131 22.9637 387.124 22.9747L388.832 24.0146C389.053 23.6512 389.149 23.2493 389.149 22.8428H387.149ZM387.121 22.9801C387.107 23.0027 387.089 23.0239 387.043 23.0484L387.971 24.8198C388.328 24.6326 388.624 24.3609 388.836 24.0091L387.121 22.9801ZM387.045 23.047C387.01 23.0654 386.941 23.0903 386.811 23.0903V25.0903C387.208 25.0903 387.603 25.0111 387.968 24.8212L387.045 23.047Z" fill="black" mask="url(#path-62-outside-2_456_742)"/>
<line x1="385" y1="30" x2="385" y2="25" stroke="#FF4E4E"/>
<line x1="381" y1="29.5" x2="390" y2="29.5" stroke="#FF4E4E"/>
<line x1="17" y1="0.5" x2="26" y2="0.5" stroke="#FF4E4E"/>
<line x1="21" y1="18.5" x2="21" y2="1" stroke="#FF4E4E"/>
<path d="M1.14355 23.5L0.210938 19.9771H0.977539L1.52686 22.4941H1.56592L2.20801 19.9771H2.83057L3.48486 22.4941H3.52393L4.06836 19.9771H4.83008L3.89502 23.5H3.2041L2.5376 21.127H2.49854L1.83936 23.5H1.14355ZM5.47217 23.5V19.9771H6.93945C7.20638 19.9771 7.43343 20.0226 7.62061 20.1138C7.80941 20.2033 7.95264 20.3319 8.05029 20.4995C8.14958 20.6672 8.19922 20.8665 8.19922 21.0977V21.1025C8.19922 21.3288 8.14307 21.5322 8.03076 21.7129C7.92008 21.8919 7.76383 22.0213 7.56201 22.1011L8.3042 23.5H7.46924L6.8125 22.2109C6.80762 22.2109 6.80192 22.2109 6.79541 22.2109C6.7889 22.2109 6.7832 22.2109 6.77832 22.2109H6.20947V23.5H5.47217ZM6.20947 21.6738H6.85889C7.04281 21.6738 7.18604 21.625 7.28857 21.5273C7.39274 21.4281 7.44482 21.2913 7.44482 21.1172V21.1123C7.44482 20.9414 7.39193 20.8055 7.28613 20.7046C7.18034 20.6037 7.03467 20.5532 6.84912 20.5532H6.20947V21.6738ZM8.69238 23.5L9.91553 19.9771H10.543V20.6802H10.3281L9.46631 23.5H8.69238ZM9.34668 22.6455L9.52734 22.0938H11.1558L11.3364 22.6455H9.34668ZM11.2314 23.5L10.3721 20.6802V19.9771H10.7822L12.0078 23.5H11.2314ZM12.9746 22.3892V21.813H13.8779C14.0895 21.813 14.2539 21.7593 14.3711 21.6519C14.4899 21.5428 14.5493 21.3882 14.5493 21.188V21.1831C14.5493 20.9829 14.4899 20.8291 14.3711 20.7217C14.2539 20.6143 14.0895 20.5605 13.8779 20.5605H12.9746V19.9771H14.0586C14.306 19.9771 14.5225 20.0275 14.708 20.1284C14.8936 20.2277 15.0376 20.3677 15.1401 20.5483C15.2443 20.729 15.2964 20.9398 15.2964 21.1807V21.1855C15.2964 21.4281 15.2443 21.6396 15.1401 21.8203C15.0376 22.001 14.8936 22.141 14.708 22.2402C14.5225 22.3395 14.306 22.3892 14.0586 22.3892H12.9746ZM12.606 23.5V19.9771H13.3433V23.5H12.606ZM15.0596 24.3862V23.7441H18.1968V24.3862H15.0596ZM19.8887 23.5903C19.5485 23.5903 19.2547 23.5155 19.0073 23.3657C18.7599 23.216 18.5695 23.0028 18.436 22.7261C18.3026 22.4494 18.2358 22.1206 18.2358 21.7397V21.7349C18.2358 21.354 18.3026 21.0252 18.436 20.7485C18.5695 20.4718 18.7591 20.2594 19.0049 20.1113C19.2523 19.9616 19.5469 19.8867 19.8887 19.8867C20.167 19.8867 20.4168 19.9412 20.6382 20.0503C20.8612 20.1593 21.041 20.3099 21.1777 20.502C21.3145 20.694 21.3942 20.9137 21.417 21.1611V21.1929H20.7017L20.6992 21.1758C20.6748 21.0439 20.6252 20.9284 20.5503 20.8291C20.4754 20.7282 20.381 20.6501 20.2671 20.5947C20.1548 20.5394 20.0286 20.5117 19.8887 20.5117C19.7048 20.5117 19.5452 20.5614 19.4102 20.6606C19.2751 20.7583 19.1709 20.8991 19.0977 21.083C19.026 21.2653 18.9902 21.4826 18.9902 21.7349V21.7397C18.9902 21.9904 19.026 22.2077 19.0977 22.3916C19.1709 22.5755 19.2751 22.7171 19.4102 22.8164C19.5452 22.9157 19.7056 22.9653 19.8911 22.9653C20.0327 22.9653 20.1589 22.9401 20.2695 22.8896C20.3818 22.8376 20.4746 22.7651 20.5479 22.6724C20.6227 22.578 20.6724 22.4681 20.6968 22.3428L20.7017 22.3208H21.4194V22.3501C21.3934 22.5959 21.3128 22.8115 21.1777 22.9971C21.0426 23.1826 20.8652 23.3283 20.6455 23.4341C20.4258 23.5382 20.1735 23.5903 19.8887 23.5903ZM23.6387 23.5903C23.2904 23.5903 22.9893 23.5155 22.7354 23.3657C22.4814 23.2144 22.2853 23.0003 22.147 22.7236C22.0103 22.4469 21.9419 22.119 21.9419 21.7397V21.7349C21.9419 21.354 22.0111 21.026 22.1494 20.751C22.2894 20.4743 22.4863 20.2611 22.7402 20.1113C22.9941 19.9616 23.2936 19.8867 23.6387 19.8867C23.9854 19.8867 24.2848 19.9616 24.5371 20.1113C24.791 20.2611 24.9871 20.4743 25.1255 20.751C25.2638 21.0277 25.333 21.3556 25.333 21.7349V21.7397C25.333 22.119 25.2638 22.4469 25.1255 22.7236C24.9888 23.0003 24.7935 23.2144 24.5396 23.3657C24.2856 23.5155 23.9854 23.5903 23.6387 23.5903ZM23.6387 22.9653C23.8291 22.9653 23.9951 22.9149 24.1367 22.814C24.2783 22.7131 24.3874 22.5706 24.4639 22.3867C24.542 22.2028 24.5811 21.9871 24.5811 21.7397V21.7349C24.5811 21.4858 24.542 21.2702 24.4639 21.0879C24.3874 20.904 24.2783 20.7624 24.1367 20.6631C23.9951 20.5622 23.8291 20.5117 23.6387 20.5117C23.4482 20.5117 23.2822 20.5622 23.1406 20.6631C22.999 20.7624 22.8892 20.904 22.811 21.0879C22.7329 21.2702 22.6938 21.4858 22.6938 21.7349V21.7397C22.6938 21.9871 22.7321 22.2028 22.8086 22.3867C22.8867 22.5706 22.9958 22.7131 23.1357 22.814C23.2773 22.9149 23.445 22.9653 23.6387 22.9653ZM26.0337 23.5V19.9771H26.6489L28.4629 22.4819L27.9478 22.2207H28.314V19.9771H29.0195V23.5H28.4092L26.5903 20.9854L27.1079 21.2466H26.7393V23.5H26.0337ZM30.731 23.5V20.585H29.6738V19.9771H32.5254V20.585H31.4683V23.5H30.731ZM33.1772 23.5V19.9771H35.5112V20.585H33.9146V21.4346H35.4209V22.001H33.9146V22.8921H35.5112V23.5H33.1772ZM36.2876 23.5V19.9771H36.9028L38.7168 22.4819L38.2017 22.2207H38.5679V19.9771H39.2734V23.5H38.6631L36.8442 20.9854L37.3618 21.2466H36.9932V23.5H36.2876ZM40.9849 23.5V20.585H39.9277V19.9771H42.7793V20.585H41.7222V23.5H40.9849Z" fill="white"/>
<line x1="21" y1="42" x2="21" y2="24.5" stroke="#FF4E4E"/>
<line x1="17" y1="41.5" x2="26" y2="41.5" stroke="#FF4E4E"/>
<line x1="45.5" y1="43" x2="45.5" y2="52" stroke="#FF4E4E"/>
<line x1="45" y1="47" x2="203.5" y2="47" stroke="#FF4E4E"/>
<path d="M203.927 49.5V45.9771H204.772L205.746 48.5552H205.79L206.762 45.9771H207.606V49.5H206.95V47.1025H206.586L207.289 46.0747L205.998 49.5H205.536L204.247 46.0747L204.948 47.1025H204.584V49.5H203.927ZM208.212 49.5L209.435 45.9771H210.062V46.6802H209.848L208.986 49.5H208.212ZM208.866 48.6455L209.047 48.0938H210.675L210.856 48.6455H208.866ZM210.751 49.5L209.892 46.6802V45.9771H210.302L211.527 49.5H210.751ZM212.604 49.5V46.585H211.547V45.9771H214.398V46.585H213.341V49.5H212.604ZM216.425 49.5903C216.085 49.5903 215.791 49.5155 215.543 49.3657C215.296 49.216 215.106 49.0028 214.972 48.7261C214.839 48.4494 214.772 48.1206 214.772 47.7397V47.7349C214.772 47.354 214.839 47.0252 214.972 46.7485C215.106 46.4718 215.295 46.2594 215.541 46.1113C215.788 45.9616 216.083 45.8867 216.425 45.8867C216.703 45.8867 216.953 45.9412 217.174 46.0503C217.397 46.1593 217.577 46.3099 217.714 46.502C217.851 46.694 217.93 46.9137 217.953 47.1611V47.1929H217.238L217.235 47.1758C217.211 47.0439 217.161 46.9284 217.086 46.8291C217.012 46.7282 216.917 46.6501 216.803 46.5947C216.691 46.5394 216.565 46.5117 216.425 46.5117C216.241 46.5117 216.081 46.5614 215.946 46.6606C215.811 46.7583 215.707 46.8991 215.634 47.083C215.562 47.2653 215.526 47.4826 215.526 47.7349V47.7397C215.526 47.9904 215.562 48.2077 215.634 48.3916C215.707 48.5755 215.811 48.7171 215.946 48.8164C216.081 48.9157 216.242 48.9653 216.427 48.9653C216.569 48.9653 216.695 48.9401 216.806 48.8896C216.918 48.8376 217.011 48.7651 217.084 48.6724C217.159 48.578 217.208 48.4681 217.233 48.3428L217.238 48.3208H217.956V48.3501C217.93 48.5959 217.849 48.8115 217.714 48.9971C217.579 49.1826 217.401 49.3283 217.182 49.4341C216.962 49.5382 216.71 49.5903 216.425 49.5903ZM218.634 49.5V45.9771H219.372V47.4077H220.958V45.9771H221.696V49.5H220.958V48.0156H219.372V49.5H218.634ZM222.123 50.3862V49.7441H225.26V50.3862H222.123ZM226.059 48.3892V47.813H226.962C227.174 47.813 227.338 47.7593 227.455 47.6519C227.574 47.5428 227.633 47.3882 227.633 47.188V47.1831C227.633 46.9829 227.574 46.8291 227.455 46.7217C227.338 46.6143 227.174 46.5605 226.962 46.5605H226.059V45.9771H227.143C227.39 45.9771 227.606 46.0275 227.792 46.1284C227.978 46.2277 228.122 46.3677 228.224 46.5483C228.328 46.729 228.38 46.9398 228.38 47.1807V47.1855C228.38 47.4281 228.328 47.6396 228.224 47.8203C228.122 48.001 227.978 48.141 227.792 48.2402C227.606 48.3395 227.39 48.3892 227.143 48.3892H226.059ZM225.69 49.5V45.9771H226.427V49.5H225.69ZM228.563 49.5L229.787 45.9771H230.414V46.6802H230.199L229.337 49.5H228.563ZM229.218 48.6455L229.398 48.0938H231.027L231.208 48.6455H229.218ZM231.103 49.5L230.243 46.6802V45.9771H230.653L231.879 49.5H231.103ZM232.477 49.5V45.9771H233.944C234.211 45.9771 234.438 46.0226 234.625 46.1138C234.814 46.2033 234.958 46.3319 235.055 46.4995C235.154 46.6672 235.204 46.8665 235.204 47.0977V47.1025C235.204 47.3288 235.148 47.5322 235.036 47.7129C234.925 47.8919 234.769 48.0213 234.567 48.1011L235.309 49.5H234.474L233.817 48.2109C233.812 48.2109 233.807 48.2109 233.8 48.2109C233.794 48.2109 233.788 48.2109 233.783 48.2109H233.214V49.5H232.477ZM233.214 47.6738H233.864C234.048 47.6738 234.191 47.625 234.293 47.5273C234.398 47.4281 234.45 47.2913 234.45 47.1172V47.1123C234.45 46.9414 234.397 46.8055 234.291 46.7046C234.185 46.6037 234.04 46.5532 233.854 46.5532H233.214V47.6738ZM235.949 49.5V45.9771H238.283V46.585H236.686V47.4346H238.192V48.001H236.686V48.8921H238.283V49.5H235.949ZM239.059 49.5V45.9771H239.674L241.488 48.4819L240.973 48.2207H241.339V45.9771H242.045V49.5H241.435L239.616 46.9854L240.133 47.2466H239.765V49.5H239.059ZM243.756 49.5V46.585H242.699V45.9771H245.551V46.585H244.494V49.5H243.756Z" fill="white"/>
<line x1="246.5" y1="47" x2="405" y2="47" stroke="#FF4E4E"/>
<line x1="405.5" y1="43" x2="405.5" y2="52" stroke="#FF4E4E"/>
</svg>
